<svg width="47" height="47" viewBox="0 0 47 47" fill="none" xmlns="http://www.w3.org/2000/svg">
    <circle cx="23.8999" cy="23.1018" r="23" fill="#CA2F4E"/>
    <path d="M26.2563 15.9918L25.9463 13.5418C25.9163 13.2918 25.7063 13.1018 25.4463 13.1018H22.3363C22.0863 13.1018 21.8663 13.2918 21.8363 13.5418L21.5663 15.6918C21.5463 15.8718 21.4163 16.0318 21.2463 16.0918C20.4063 16.4018 19.6063 16.8818 18.9163 17.5018L16.6363 16.5418C16.4063 16.4418 16.1363 16.5318 16.0063 16.7518L14.4463 19.4518C14.3263 19.6718 14.3863 19.9518 14.5863 20.1018L16.5563 21.5918C16.3463 22.6018 16.3463 23.6318 16.5463 24.6118H16.5563L14.5863 26.1018C14.3863 26.2518 14.3263 26.5318 14.4563 26.7518L16.0163 29.4518C16.1463 29.6718 16.4163 29.7618 16.6463 29.6618L18.9263 28.7018L18.9163 28.7118C19.2863 29.0418 19.7063 29.3418 20.1563 29.6018C20.6063 29.8618 21.0663 30.0718 21.5463 30.2318V30.2118L21.8563 32.6618C21.8663 32.9118 22.0863 33.1018 22.3363 33.1018H25.4563C25.7063 33.1018 25.9163 32.9118 25.9563 32.6618L26.2263 30.5118C26.2463 30.3318 26.3763 30.1718 26.5463 30.1118C27.3863 29.8018 28.1863 29.3218 28.8763 28.7018L31.1563 29.6618C31.3863 29.7618 31.6563 29.6718 31.7863 29.4518L33.3463 26.7518C33.4763 26.5318 33.4163 26.2518 33.2163 26.1018L31.2463 24.6118C31.4563 23.6018 31.4563 22.5718 31.2563 21.5918H31.2463L33.1963 20.1018C33.3963 19.9518 33.4563 19.6718 33.3263 19.4518L31.7663 16.7518C31.6363 16.5318 31.3663 16.4418 31.1363 16.5418L28.8663 17.5018L28.8763 17.4918C28.5063 17.1618 28.0863 16.8618 27.6363 16.6018C27.1863 16.3418 26.7263 16.1318 26.2463 15.9718" stroke="white" stroke-width="1.75" stroke-miterlimit="10" stroke-linecap="round" stroke-linejoin="round"/>
    <path d="M23.8965 27.1018C26.1056 27.1018 27.8965 25.3109 27.8965 23.1018C27.8965 20.8927 26.1056 19.1018 23.8965 19.1018C21.6873 19.1018 19.8965 20.8927 19.8965 23.1018C19.8965 25.3109 21.6873 27.1018 23.8965 27.1018Z" stroke="white" stroke-width="1.75" stroke-miterlimit="10" stroke-linecap="round" stroke-linejoin="round"/>
</svg>
