<svg width="47" height="47" viewBox="0 0 47 47" fill="none" xmlns="http://www.w3.org/2000/svg">
    <circle cx="23.8999" cy="23.1018" r="23" fill="#52B392"/>
    <path d="M30.5667 14.224C33.2667 16.2462 35.0111 19.4684 35.0111 23.1018C35.0111 26.7351 33.2667 29.9573 30.5667 31.9795" stroke="white" stroke-width="1.75" stroke-miterlimit="10" stroke-linecap="round" stroke-linejoin="round"/>
    <path d="M28.3445 18.9128C28.7778 19.3684 29.1445 19.9017 29.4111 20.4795C29.4556 20.5573 29.5 20.6351 29.5334 20.724C29.8334 21.4573 30.0111 22.2573 30.0111 23.1018C30.0111 23.9462 29.8334 24.7462 29.5334 25.4795C29.5 25.5684 29.4556 25.6462 29.4111 25.724C29.1445 26.3018 28.7778 26.8351 28.3445 27.2906" stroke="white" stroke-width="1.75" stroke-miterlimit="10" stroke-linecap="round" stroke-linejoin="round"/>
    <path d="M17.2333 18.6573H12.7888V27.5462H17.2333V18.6573Z" stroke="white" stroke-width="1.75" stroke-miterlimit="10" stroke-linecap="round" stroke-linejoin="round"/>
    <path d="M17.2332 27.5463V18.6574L23.8998 13.1018V33.1018L17.2332 27.5463Z" stroke="white" stroke-width="1.75" stroke-miterlimit="10" stroke-linecap="round" stroke-linejoin="round"/>
</svg>
