<svg width="46" height="47" viewBox="0 0 46 47" fill="none" xmlns="http://www.w3.org/2000/svg">
    <circle cx="23" cy="23.3093" r="23" fill="#F6D278"/>
    <path d="M21.0002 33.3093L19.8002 30.8793C19.8002 30.8793 15.6902 31.1993 15.6102 30.7793C15.3502 29.4393 14.8702 26.7693 14.7402 25.8393L12.2602 24.6093C12.0602 24.6093 11.9302 24.4293 12.0402 24.2893L15.7702 19.4693C15.7102 15.0293 18.6602 13.3093 21.0002 13.3093C24.3202 13.3093 31.6702 13.3893 31.9902 21.0493C32.0502 22.4093 31.6602 23.6993 31.6602 23.6993" stroke="white" stroke-width="1.75" stroke-miterlimit="10" stroke-linecap="round" stroke-linejoin="round"/>
    <path d="M23.549 25.9993C24.979 25.2693 28.549 21.5893 26.399 18.7693C24.659 16.4693 21.339 16.4693 19.589 18.7693C17.439 21.5993 21.019 25.2693 22.439 25.9993C22.799 26.1793 23.199 26.1793 23.549 25.9993Z" stroke="white" stroke-width="1.75" stroke-miterlimit="10" stroke-linecap="round" stroke-linejoin="round"/>
    <path d="M23 22.0894V26.1294" stroke="white" stroke-width="1.75" stroke-miterlimit="10" stroke-linecap="round" stroke-linejoin="round"/>
    <path d="M21.3984 26.1292H24.5984" stroke="white" stroke-width="1.75" stroke-miterlimit="10" stroke-linecap="round" stroke-linejoin="round"/>
    <path d="M21.3984 28.7693H24.5984" stroke="white" stroke-width="1.75" stroke-miterlimit="10" stroke-linecap="round" stroke-linejoin="round"/>
    <path d="M23 22.0893C23.2761 22.0893 23.5 21.8655 23.5 21.5893C23.5 21.3132 23.2761 21.0894 23 21.0894C22.7239 21.0894 22.5 21.3132 22.5 21.5893C22.5 21.8655 22.7239 22.0893 23 22.0893Z" stroke="white" stroke-width="1.75" stroke-miterlimit="10"/>
</svg>
