<svg width="24" height="20" viewBox="0 0 24 20" fill="none" xmlns="http://www.w3.org/2000/svg">
    <path d="M6.46875 13.1875C3.53625 13.1875 1.15625 15.5675 1.15625 18.5C1.16687 18.5 11.7812 18.5 11.7812 18.5C11.7812 15.5675 9.40125 13.1875 6.46875 13.1875Z" stroke="#52B392" stroke-width="1.75" stroke-miterlimit="10" stroke-linecap="round" stroke-linejoin="round"/>
    <path d="M6.46875 13.1875C7.93575 13.1875 9.125 11.9982 9.125 10.5312C9.125 9.06426 7.93575 7.875 6.46875 7.875C5.00175 7.875 3.8125 9.06426 3.8125 10.5312C3.8125 11.9982 5.00175 13.1875 6.46875 13.1875Z" stroke="#52B392" stroke-width="1.75" stroke-miterlimit="10" stroke-linecap="round" stroke-linejoin="round"/>
    <path d="M17.0938 6.8125C14.1613 6.8125 11.7812 9.1925 11.7812 12.125C11.7919 12.125 22.4062 12.125 22.4062 12.125C22.4062 9.1925 20.0262 6.8125 17.0938 6.8125Z" stroke="#52B392" stroke-width="1.75" stroke-miterlimit="10" stroke-linecap="round" stroke-linejoin="round"/>
    <path d="M17.0938 6.8125C18.5607 6.8125 19.75 5.62325 19.75 4.15625C19.75 2.68925 18.5607 1.5 17.0938 1.5C15.6268 1.5 14.4375 2.68925 14.4375 4.15625C14.4375 5.62325 15.6268 6.8125 17.0938 6.8125Z" stroke="#52B392" stroke-width="1.75" stroke-miterlimit="10" stroke-linecap="round" stroke-linejoin="round"/>
</svg>
