<svg width="21" height="20" viewBox="0 0 21 20" fill="none" xmlns="http://www.w3.org/2000/svg">
    <path d="M17.9813 10.9C17.2343 10.333 16.2983 10 15.2813 10C12.7973 10 10.7813 12.016 10.7813 14.5C10.7813 15.517 11.1143 16.453 11.6813 17.2H2.68125C2.18625 17.2 1.78125 16.795 1.78125 16.3V1.9C1.78125 1.405 2.18625 1 2.68125 1H14.0123C14.2463 1 14.4803 1.099 14.6423 1.261L17.7202 4.339C17.8822 4.501 17.9813 4.735 17.9813 4.969V10.9Z" stroke="#52B392" stroke-width="1.75" stroke-miterlimit="10" stroke-linecap="round" stroke-linejoin="round"/>
    <path d="M10.8712 13.6H5.38123" stroke="#52B392" stroke-width="1.75" stroke-miterlimit="10" stroke-linecap="round" stroke-linejoin="round"/>
    <path d="M5.38123 9.09998H14.3812" stroke="#52B392" stroke-width="1.75" stroke-miterlimit="10" stroke-linecap="round" stroke-linejoin="round"/>
    <path d="M5.38123 4.59998H9.88123" stroke="#52B392" stroke-width="1.75" stroke-miterlimit="10" stroke-linecap="round" stroke-linejoin="round"/>
    <path d="M15.2812 19C17.7665 19 19.7812 16.9853 19.7812 14.5C19.7812 12.0147 17.7665 10 15.2812 10C12.796 10 10.7812 12.0147 10.7812 14.5C10.7812 16.9853 12.796 19 15.2812 19Z" stroke="#52B392" stroke-width="1.75" stroke-miterlimit="10" stroke-linecap="round" stroke-linejoin="round"/>
    <path d="M13.1208 13.915L14.7408 15.535L17.4408 12.835" stroke="#52B392" stroke-width="1.75" stroke-miterlimit="10"/>
    <path d="M13.4812 1V5.5H17.9812V4.969C17.9812 4.735 17.8822 4.501 17.7202 4.339L14.6422 1.261C14.4802 1.099 14.2462 1 14.0122 1H13.4812Z" stroke="#52B392" stroke-width="1.75" stroke-miterlimit="10" stroke-linecap="round" stroke-linejoin="round"/>
</svg>
