<svg width="23" height="22" viewBox="0 0 23 22" fill="none" xmlns="http://www.w3.org/2000/svg">
    <path d="M10.3692 21L9.16918 18.57C9.16918 18.57 5.05918 18.89 4.97918 18.47C4.71918 17.13 4.23918 14.46 4.10918 13.53L1.62918 12.3C1.42918 12.3 1.29918 12.12 1.40918 11.98L5.13918 7.16C5.07918 2.72 8.02918 1 10.3692 1C13.6892 1 21.0392 1.08 21.3592 8.74C21.4192 10.1 21.0292 11.39 21.0292 11.39" stroke="#CA2F4E" stroke-width="1.75" stroke-miterlimit="10" stroke-linecap="round" stroke-linejoin="round"/>
    <path d="M12.919 13.69C14.349 12.96 17.919 9.28 15.769 6.45999C14.029 4.15999 10.709 4.15999 8.959 6.45999C6.809 9.29 10.389 12.96 11.809 13.69C12.169 13.87 12.569 13.87 12.919 13.69Z" stroke="#CA2F4E" stroke-width="1.75" stroke-miterlimit="10" stroke-linecap="round" stroke-linejoin="round"/>
    <path d="M12.369 9.78003V13.82" stroke="#CA2F4E" stroke-width="1.75" stroke-miterlimit="10" stroke-linecap="round" stroke-linejoin="round"/>
    <path d="M10.7692 13.8199H13.9692" stroke="#CA2F4E" stroke-width="1.75" stroke-miterlimit="10" stroke-linecap="round" stroke-linejoin="round"/>
    <path d="M10.7692 16.46H13.9692" stroke="#CA2F4E" stroke-width="1.75" stroke-miterlimit="10" stroke-linecap="round" stroke-linejoin="round"/>
    <path d="M12.369 9.78C12.6451 9.78 12.869 9.5562 12.869 9.28C12.869 9.0039 12.6451 8.78003 12.369 8.78003C12.0929 8.78003 11.869 9.0039 11.869 9.28C11.869 9.5562 12.0929 9.78 12.369 9.78Z" stroke="#CA2F4E" stroke-width="1.75" stroke-miterlimit="10"/>
</svg>
