<svg width="22" height="20" viewBox="0 0 22 20" fill="none" xmlns="http://www.w3.org/2000/svg">
    <path d="M15.9495 1C13.0691 0.99993 10.9495 4 10.9495 4C10.9495 4 9.03026 1 5.94946 1C3.04862 1 0.949563 3.00004 0.949463 5.99998C0.949563 8.9999 1.94956 11 4.94946 14C6.94956 16 10.9495 19 10.9495 19C10.9495 19 14.9496 16 16.9495 14C19.9496 11 20.9496 9 20.9496 6C20.9496 3.00004 18.8503 1.00007 15.9495 1Z" stroke="#CA2F4E" stroke-width="1.75" stroke-linecap="round" stroke-linejoin="round"/>
    <path d="M1.83228 10.0156L4.94936 10L6.94942 6L8.94942 12L10.9494 9L12.9494 12L14.9494 6L16.9494 10L20.0666 10.0156" stroke="#CA2F4E" stroke-width="1.75" stroke-linecap="round" stroke-linejoin="round"/>
</svg>
