<svg width="21" height="20" viewBox="0 0 21 20" fill="none" xmlns="http://www.w3.org/2000/svg">
    <path d="M10.4529 1.00037C10.4529 1.00037 9.1343 3.94989 9.21339 5.93541C9.27917 7.58397 10.3655 10 10.3655 10C10.3655 10 9.02444 12.5492 7.64871 13.6972C6.24319 14.8699 3.42456 15.7292 3.42456 15.7292C1.28732 13.1362 0.695911 9.44575 2.21066 6.19736C3.74945 2.8974 7.03485 0.969265 10.4529 1.00037Z" stroke="#CA2F4E" stroke-width="1.75" stroke-linecap="round" stroke-linejoin="round"/>
    <path d="M10.3652 10C10.3652 10 9.27892 7.58394 9.21315 5.93539C9.13396 3.94985 10.4526 1.00034 10.4526 1.00034C11.6995 1.01169 12.9641 1.28374 14.1679 1.8451C18.6717 3.94525 20.6203 9.29883 18.5201 13.8026C18.5201 13.8026 16.9182 11.0701 15.2032 10.2703C13.4882 9.4706 10.3652 10 10.3652 10Z" stroke="#CA2F4E" stroke-width="1.75" stroke-linecap="round" stroke-linejoin="round"/>
    <path d="M3.4248 15.7292C3.4248 15.7292 6.24342 14.87 7.64893 13.6972C9.02462 12.5492 10.3658 10 10.3658 10C10.3658 10 13.4887 9.47059 15.2037 10.2703C16.9187 11.0701 18.5206 13.8026 18.5206 13.8026C16.4204 18.3064 11.0669 20.255 6.56308 18.1548C5.30767 17.5694 4.25079 16.7313 3.4248 15.7292Z" stroke="#CA2F4E" stroke-width="1.75" stroke-linecap="round" stroke-linejoin="round"/>
    <path d="M9.21329 5.93542C9.1342 3.94989 10.4527 1.00037 10.4527 1.00037C8.67368 0.984175 6.93054 1.49878 5.45092 2.46135L5.45808 2.46391C4.679 4.58668 4.31316 6.29399 4.49438 8.75139C4.6771 11.2294 6.8606 14.2288 6.8606 14.2288L6.86612 14.2438C7.15231 14.0716 7.41927 13.8885 7.64861 13.6972C9.02433 12.5492 10.3654 10 10.3654 10C10.3654 10 9.27906 7.58397 9.21329 5.93542Z" stroke="#CA2F4E" stroke-width="1.75" stroke-linecap="round" stroke-linejoin="round"/>
    <path d="M9.33019 4.59152C9.33019 4.59152 12.7918 4.15354 15.7637 5.50078C17.1927 6.14859 18.3145 7.04419 19.0805 7.77991L19.0839 7.77464C19.5814 9.71923 19.4346 11.8415 18.5201 13.8026C18.5201 13.8026 16.9182 11.07 15.2032 10.2703C13.4882 9.47053 10.3652 9.99996 10.3652 9.99996C10.3652 9.99996 9.27891 7.58387 9.21313 5.93532C9.19649 5.51689 9.24184 5.05565 9.3239 4.58822L9.33019 4.59152Z" stroke="#CA2F4E" stroke-width="1.75" stroke-linecap="round" stroke-linejoin="round"/>
    <path d="M7.64893 13.6972C6.24342 14.87 3.4248 15.7292 3.4248 15.7292C4.25079 16.7313 5.30767 17.5694 6.56308 18.1548C6.89737 18.3107 7.23634 18.4443 7.57831 18.5562C7.67628 18.5249 7.77423 18.4936 7.87213 18.4622C8.43068 18.2829 8.9871 18.0988 9.53102 17.8839C10.6192 17.4541 11.6595 16.9002 12.5732 16.0111C13.4683 15.1402 14.3401 13.8035 14.9873 12.6875C15.3111 12.129 15.5791 11.6247 15.7663 11.2601C15.8599 11.0777 15.9332 10.9303 15.9832 10.8284L16.0071 10.7796C15.746 10.5735 15.4764 10.3975 15.2037 10.2703C13.4887 9.47059 10.3658 10 10.3658 10C10.3658 10 9.02462 12.5492 7.64893 13.6972Z" stroke="#CA2F4E" stroke-width="1.75" stroke-linecap="round" stroke-linejoin="round"/>
</svg>
