<svg width="20" height="20" viewBox="0 0 20 20" fill="none" xmlns="http://www.w3.org/2000/svg">
    <path d="M12.2913 3.601L11.9981 1.396C11.9697 1.171 11.771 1 11.5251 1H8.58352C8.34706 1 8.13897 1.171 8.11059 1.396L7.85521 3.331C7.8363 3.493 7.71334 3.637 7.55254 3.691C6.75802 3.97 6.00134 4.402 5.3487 4.96L3.19216 4.096C2.97461 4.006 2.71923 4.087 2.59627 4.285L1.12074 6.715C1.00723 6.913 1.06399 7.165 1.25316 7.3L3.11649 8.641C2.91786 9.55 2.91786 10.477 3.10703 11.359H3.11649L1.25316 12.7C1.06399 12.835 1.00723 13.087 1.1302 13.285L2.60573 15.715C2.72869 15.913 2.98407 15.994 3.20161 15.904L5.35816 15.04L5.3487 15.049C5.69867 15.346 6.09593 15.616 6.52156 15.85C6.94719 16.084 7.38229 16.273 7.8363 16.417V16.399L8.12951 18.604C8.13897 18.829 8.34706 19 8.58352 19H11.5346C11.771 19 11.9697 18.829 12.0075 18.604L12.2629 16.669C12.2818 16.507 12.4048 16.363 12.5656 16.309C13.3601 16.03 14.1168 15.598 14.7694 15.04L16.9259 15.904C17.1435 15.994 17.3989 15.913 17.5218 15.715L18.9974 13.285C19.1203 13.087 19.0636 12.835 18.8744 12.7L17.0111 11.359C17.2097 10.45 17.2097 9.523 17.0205 8.641H17.0111L18.8555 7.3C19.0447 7.165 19.1014 6.913 18.9785 6.715L17.5029 4.285C17.38 4.087 17.1246 4.006 16.907 4.096L14.7599 4.96L14.7694 4.951C14.4194 4.654 14.0222 4.384 13.5965 4.15C13.1709 3.916 12.7358 3.727 12.2818 3.583" stroke="#52B392" stroke-width="1.75" stroke-miterlimit="10" stroke-linecap="round" stroke-linejoin="round"/>
    <path d="M10.0593 13.6C12.1488 13.6 13.8427 11.9882 13.8427 10C13.8427 8.0118 12.1488 6.40002 10.0593 6.40002C7.96977 6.40002 6.27588 8.0118 6.27588 10C6.27588 11.9882 7.96977 13.6 10.0593 13.6Z" stroke="#52B392" stroke-width="1.75" stroke-miterlimit="10" stroke-linecap="round" stroke-linejoin="round"/>
</svg>
