<svg width="297" height="266" viewBox="0 0 297 266" fill="none" xmlns="http://www.w3.org/2000/svg">
<path d="M76.734 8.77021V16.2842H67.322V8.77021H63.942V26.9702H67.322V19.1702H76.734V26.9702H80.114V8.77021H76.734ZM90.9189 27.1522C95.2349 27.1522 98.3289 24.1882 98.3289 20.0282C98.3289 15.8682 95.2349 12.9302 90.9189 12.9302C86.6549 12.9302 83.5349 15.8682 83.5349 20.0282C83.5349 24.1882 86.6549 27.1522 90.9189 27.1522ZM90.9189 24.3702C88.5789 24.3702 86.8109 22.6802 86.8109 20.0282C86.8109 17.3762 88.5789 15.6862 90.9189 15.6862C93.2849 15.6862 95.0529 17.3762 95.0529 20.0282C95.0529 22.6802 93.2849 24.3702 90.9189 24.3702ZM119.828 13.0862L116.058 23.3822L112.314 13.0862H109.584L105.762 23.3302L102.096 13.0862H99.0278L104.124 26.9702H107.244L110.884 17.4022L114.472 26.9702H117.592L122.714 13.0862H119.828ZM139.57 23.9022C139.076 24.2922 138.426 24.4742 137.75 24.4742C136.502 24.4742 135.826 23.7462 135.826 22.3942V15.7902H139.544V13.1902H135.826V10.0182H132.576V13.1902H130.288V15.7902H132.576V22.4722C132.576 25.5402 134.318 27.1522 137.36 27.1522C138.53 27.1522 139.7 26.8402 140.48 26.2162L139.57 23.9022ZM148.936 27.1522C153.252 27.1522 156.346 24.1882 156.346 20.0282C156.346 15.8682 153.252 12.9302 148.936 12.9302C144.672 12.9302 141.552 15.8682 141.552 20.0282C141.552 24.1882 144.672 27.1522 148.936 27.1522ZM148.936 24.3702C146.596 24.3702 144.828 22.6802 144.828 20.0282C144.828 17.3762 146.596 15.6862 148.936 15.6862C151.302 15.6862 153.07 17.3762 153.07 20.0282C153.07 22.6802 151.302 24.3702 148.936 24.3702ZM171.944 12.9302C169.708 12.9302 167.55 13.5022 166.068 14.6462L167.342 17.0122C168.382 16.1542 169.994 15.6342 171.554 15.6342C173.868 15.6342 175.012 16.7522 175.012 18.6502V18.8582H171.424C167.212 18.8582 165.652 20.6782 165.652 22.9922C165.652 25.4102 167.654 27.1522 170.826 27.1522C172.906 27.1522 174.414 26.4762 175.194 25.2802V26.9702H178.262V18.8322C178.262 14.8282 175.948 12.9302 171.944 12.9302ZM171.502 24.7862C169.838 24.7862 168.85 24.0322 168.85 22.8622C168.85 21.8482 169.448 21.0162 171.658 21.0162H175.012V22.6282C174.466 24.0582 173.088 24.7862 171.502 24.7862ZM190.129 12.9302C188.231 12.9302 186.619 13.5802 185.527 14.9062V13.0862H182.433V32.0142H185.683V25.2802C186.801 26.5542 188.361 27.1522 190.129 27.1522C194.185 27.1522 197.175 24.3442 197.175 20.0282C197.175 15.7382 194.185 12.9302 190.129 12.9302ZM189.765 24.3702C187.425 24.3702 185.631 22.6802 185.631 20.0282C185.631 17.3762 187.425 15.6862 189.765 15.6862C192.105 15.6862 193.873 17.3762 193.873 20.0282C193.873 22.6802 192.105 24.3702 189.765 24.3702ZM207.953 12.9302C206.055 12.9302 204.443 13.5802 203.351 14.9062V13.0862H200.257V32.0142H203.507V25.2802C204.625 26.5542 206.185 27.1522 207.953 27.1522C212.009 27.1522 214.999 24.3442 214.999 20.0282C214.999 15.7382 212.009 12.9302 207.953 12.9302ZM207.589 24.3702C205.249 24.3702 203.455 22.6802 203.455 20.0282C203.455 17.3762 205.249 15.6862 207.589 15.6862C209.929 15.6862 211.697 17.3762 211.697 20.0282C211.697 22.6802 209.929 24.3702 207.589 24.3702ZM218.081 26.9702H221.331V7.67821H218.081V26.9702ZM235.477 13.0862L231.083 23.3562L226.715 13.0862H223.335L229.393 27.0222L229.159 27.5682C228.535 28.9462 227.859 29.4922 226.715 29.4922C225.831 29.4922 224.947 29.1282 224.323 28.5302L223.023 30.9222C223.907 31.7282 225.363 32.1962 226.741 32.1962C229.055 32.1962 230.823 31.2342 232.097 28.0882L238.597 13.0862H235.477ZM245.182 20.9382H248.484C248.484 17.8702 252.93 17.4802 252.93 13.2422C252.93 10.2522 250.382 8.51021 246.56 8.51021C243.31 8.51021 240.97 9.70621 239.514 11.6822L242.036 13.3202C242.946 12.0462 244.35 11.3182 246.274 11.3182C248.276 11.3182 249.524 12.3062 249.524 13.7622C249.524 16.3622 245.182 17.0902 245.182 20.9382ZM246.846 27.1522C248.042 27.1522 248.9 26.2422 248.9 25.1242C248.9 24.0062 248.042 23.1222 246.846 23.1222C245.624 23.1222 244.766 24.0062 244.766 25.1242C244.766 26.2422 245.624 27.1522 246.846 27.1522Z" fill="#1D2128"/>
<path d="M70.652 94.1523C69.932 94.5683 69.148 94.7283 68.348 94.7283C65.98 94.7283 64.3 93.0643 64.3 90.7923C64.3 88.4723 65.98 86.8563 68.364 86.8563C69.564 86.8563 70.572 87.2563 71.452 88.1363L72.764 86.8563C71.708 85.6563 70.14 85.0323 68.268 85.0323C64.764 85.0323 62.204 87.4483 62.204 90.7923C62.204 94.1363 64.764 96.5523 68.236 96.5523C69.82 96.5523 71.452 96.0723 72.62 95.1283V90.6643H70.652V94.1523ZM79.0114 96.5043C81.6674 96.5043 83.5714 94.6803 83.5714 92.1203C83.5714 89.5603 81.6674 87.7523 79.0114 87.7523C76.3874 87.7523 74.4674 89.5603 74.4674 92.1203C74.4674 94.6803 76.3874 96.5043 79.0114 96.5043ZM79.0114 94.7923C77.5714 94.7923 76.4834 93.7523 76.4834 92.1203C76.4834 90.4883 77.5714 89.4483 79.0114 89.4483C80.4674 89.4483 81.5554 90.4883 81.5554 92.1203C81.5554 93.7523 80.4674 94.7923 79.0114 94.7923ZM94.4818 94.5043C94.1778 94.7443 93.7778 94.8563 93.3618 94.8563C92.5938 94.8563 92.1778 94.4083 92.1778 93.5763V89.5123H94.4658V87.9123H92.1778V85.9603H90.1778V87.9123H88.7698V89.5123H90.1778V93.6243C90.1778 95.5123 91.2498 96.5043 93.1218 96.5043C93.8418 96.5043 94.5618 96.3123 95.0418 95.9283L94.4818 94.5043ZM100.246 96.5043C102.902 96.5043 104.806 94.6803 104.806 92.1203C104.806 89.5603 102.902 87.7523 100.246 87.7523C97.6218 87.7523 95.7018 89.5603 95.7018 92.1203C95.7018 94.6803 97.6218 96.5043 100.246 96.5043ZM100.246 94.7923C98.8058 94.7923 97.7178 93.7523 97.7178 92.1203C97.7178 90.4883 98.8058 89.4483 100.246 89.4483C101.702 89.4483 102.79 90.4883 102.79 92.1203C102.79 93.7523 101.702 94.7923 100.246 94.7923Z" fill="#1D2128"/>
<path d="M110.852 89.6243H112.308L112.452 85.1923H110.724L110.852 89.6243ZM113.94 89.6243H115.396L115.54 85.1923H113.812L113.94 89.6243ZM130.198 96.3923L130.182 85.1923H128.47L124.102 92.6163L119.654 85.1923H117.942V96.3923H119.926V89.0643L123.606 95.1123H124.534L128.214 88.9683L128.23 96.3923H130.198ZM139.111 87.8483L136.407 94.1683L133.719 87.8483H131.639L135.367 96.4243L135.223 96.7603C134.839 97.6083 134.423 97.9443 133.719 97.9443C133.175 97.9443 132.631 97.7203 132.247 97.3523L131.447 98.8243C131.991 99.3203 132.887 99.6083 133.735 99.6083C135.159 99.6083 136.247 99.0163 137.031 97.0803L141.031 87.8483H139.111ZM149.967 87.7523C148.591 87.7523 147.263 88.1043 146.351 88.8083L147.135 90.2643C147.775 89.7363 148.767 89.4163 149.727 89.4163C151.151 89.4163 151.855 90.1043 151.855 91.2723V91.4003H149.647C147.055 91.4003 146.095 92.5203 146.095 93.9443C146.095 95.4323 147.327 96.5043 149.279 96.5043C150.559 96.5043 151.487 96.0883 151.967 95.3523V96.3923H153.855V91.3843C153.855 88.9203 152.431 87.7523 149.967 87.7523ZM149.695 95.0483C148.671 95.0483 148.063 94.5843 148.063 93.8643C148.063 93.2403 148.431 92.7283 149.791 92.7283H151.855V93.7203C151.519 94.6003 150.671 95.0483 149.695 95.0483ZM160.42 96.5043C162.084 96.5043 163.411 95.7843 164.068 94.5043L162.532 93.6083C162.02 94.4243 161.252 94.7923 160.404 94.7923C158.932 94.7923 157.812 93.7843 157.812 92.1203C157.812 90.4723 158.932 89.4483 160.404 89.4483C161.252 89.4483 162.02 89.8163 162.532 90.6323L164.068 89.7363C163.411 88.4403 162.084 87.7523 160.42 87.7523C157.716 87.7523 155.796 89.5603 155.796 92.1203C155.796 94.6803 157.716 96.5043 160.42 96.5043ZM169.591 96.5043C171.255 96.5043 172.583 95.7843 173.239 94.5043L171.703 93.6083C171.191 94.4243 170.423 94.7923 169.575 94.7923C168.103 94.7923 166.983 93.7843 166.983 92.1203C166.983 90.4723 168.103 89.4483 169.575 89.4483C170.423 89.4483 171.191 89.8163 171.703 90.6323L173.239 89.7363C172.583 88.4403 171.255 87.7523 169.591 87.7523C166.887 87.7523 164.967 89.5603 164.967 92.1203C164.967 94.6803 166.887 96.5043 169.591 96.5043ZM178.683 96.5043C181.339 96.5043 183.243 94.6803 183.243 92.1203C183.243 89.5603 181.339 87.7523 178.683 87.7523C176.059 87.7523 174.139 89.5603 174.139 92.1203C174.139 94.6803 176.059 96.5043 178.683 96.5043ZM178.683 94.7923C177.243 94.7923 176.155 93.7523 176.155 92.1203C176.155 90.4883 177.243 89.4483 178.683 89.4483C180.139 89.4483 181.227 90.4883 181.227 92.1203C181.227 93.7523 180.139 94.7923 178.683 94.7923ZM191.428 87.8483V92.1683C191.428 93.8803 190.484 94.7443 189.092 94.7443C187.828 94.7443 187.092 94.0083 187.092 92.4563V87.8483H185.092V92.7283C185.092 95.3043 186.58 96.5043 188.772 96.5043C189.876 96.5043 190.884 96.0883 191.524 95.3043V96.3923H193.428V87.8483H191.428ZM200.894 87.7523C199.646 87.7523 198.606 88.1683 197.95 88.9523V87.8483H196.046V96.3923H198.046V92.0723C198.046 90.3603 199.006 89.4963 200.43 89.4963C201.71 89.4963 202.462 90.2323 202.462 91.7523V96.3923H204.462V91.4963C204.462 88.9203 202.942 87.7523 200.894 87.7523ZM211.576 94.5043C211.272 94.7443 210.872 94.8563 210.456 94.8563C209.688 94.8563 209.272 94.4083 209.272 93.5763V89.5123H211.56V87.9123H209.272V85.9603H207.272V87.9123H205.864V89.5123H207.272V93.6243C207.272 95.5123 208.344 96.5043 210.216 96.5043C210.936 96.5043 211.656 96.3123 212.136 95.9283L211.576 94.5043ZM213.493 89.6243H214.949L215.093 85.1923H213.365L213.493 89.6243ZM216.581 89.6243H218.037L218.181 85.1923H216.453L216.581 89.6243Z" fill="#52B392"/>
<path d="M75.26 172.392L75.244 161.192H73.532L69.164 168.616L64.716 161.192H63.004V172.392H64.988V165.064L68.668 171.112H69.596L73.276 164.968L73.292 172.392H75.26ZM86.1253 168.168C86.1253 165.496 84.3013 163.752 81.8053 163.752C79.2613 163.752 77.3893 165.576 77.3893 168.12C77.3893 170.664 79.2453 172.504 82.1093 172.504C83.5813 172.504 84.7812 172.024 85.5493 171.112L84.4773 169.88C83.8693 170.504 83.1173 170.808 82.1573 170.808C80.6693 170.808 79.6293 170.008 79.3893 168.76H86.0933C86.1093 168.568 86.1253 168.328 86.1253 168.168ZM81.8053 165.352C83.1173 165.352 84.0613 166.2 84.2213 167.432H79.3733C79.5653 166.184 80.5093 165.352 81.8053 165.352ZM92.8944 163.752C91.6464 163.752 90.6064 164.168 89.9504 164.952V163.848H88.0464V172.392H90.0464V168.072C90.0464 166.36 91.0064 165.496 92.4304 165.496C93.7104 165.496 94.4624 166.232 94.4624 167.752V172.392H96.4624V167.496C96.4624 164.92 94.9424 163.752 92.8944 163.752ZM105.272 163.848V168.168C105.272 169.88 104.328 170.744 102.936 170.744C101.672 170.744 100.936 170.008 100.936 168.456V163.848H98.9355V168.728C98.9355 171.304 100.424 172.504 102.616 172.504C103.72 172.504 104.728 172.088 105.368 171.304V172.392H107.272V163.848H105.272ZM114.024 165.624H115.48L115.624 161.192H113.896L114.024 165.624ZM117.112 165.624H118.568L118.712 161.192H116.984L117.112 165.624ZM121.113 172.392H123.193V161.192H121.113V172.392ZM130.879 163.752C129.631 163.752 128.591 164.168 127.935 164.952V163.848H126.031V172.392H128.031V168.072C128.031 166.36 128.991 165.496 130.415 165.496C131.695 165.496 132.447 166.232 132.447 167.752V172.392H134.447V167.496C134.447 164.92 132.927 163.752 130.879 163.752ZM139.624 172.504C142.024 172.504 143.496 171.464 143.496 169.864C143.496 166.52 138.216 168.056 138.216 166.328C138.216 165.768 138.792 165.368 140.008 165.368C140.824 165.368 141.64 165.528 142.456 166.008L143.224 164.488C142.456 164.024 141.16 163.752 140.024 163.752C137.72 163.752 136.264 164.808 136.264 166.424C136.264 169.832 141.544 168.296 141.544 169.928C141.544 170.52 141.016 170.872 139.752 170.872C138.68 170.872 137.528 170.52 136.776 170.024L136.008 171.544C136.776 172.088 138.2 172.504 139.624 172.504ZM151.49 163.848V168.168C151.49 169.88 150.546 170.744 149.154 170.744C147.89 170.744 147.154 170.008 147.154 168.456V163.848H145.154V168.728C145.154 171.304 146.642 172.504 148.834 172.504C149.938 172.504 150.946 172.088 151.586 171.304V172.392H153.49V163.848H151.49ZM158.013 165.096V163.848H156.109V172.392H158.109V168.248C158.109 166.504 159.069 165.608 160.589 165.608C160.733 165.608 160.877 165.624 161.053 165.656V163.752C159.629 163.752 158.589 164.2 158.013 165.096ZM165.967 163.752C164.591 163.752 163.263 164.104 162.351 164.808L163.135 166.264C163.775 165.736 164.767 165.416 165.727 165.416C167.151 165.416 167.855 166.104 167.855 167.272V167.4H165.647C163.055 167.4 162.095 168.52 162.095 169.944C162.095 171.432 163.327 172.504 165.279 172.504C166.559 172.504 167.487 172.088 167.967 171.352V172.392H169.855V167.384C169.855 164.92 168.431 163.752 165.967 163.752ZM165.695 171.048C164.671 171.048 164.063 170.584 164.063 169.864C164.063 169.24 164.431 168.728 165.791 168.728H167.855V169.72C167.519 170.6 166.671 171.048 165.695 171.048ZM177.269 163.752C176.021 163.752 174.981 164.168 174.325 164.952V163.848H172.421V172.392H174.421V168.072C174.421 166.36 175.381 165.496 176.805 165.496C178.085 165.496 178.837 166.232 178.837 167.752V172.392H180.837V167.496C180.837 164.92 179.317 163.752 177.269 163.752ZM187.373 172.504C189.037 172.504 190.365 171.784 191.021 170.504L189.485 169.608C188.973 170.424 188.205 170.792 187.357 170.792C185.885 170.792 184.765 169.784 184.765 168.12C184.765 166.472 185.885 165.448 187.357 165.448C188.205 165.448 188.973 165.816 189.485 166.632L191.021 165.736C190.365 164.44 189.037 163.752 187.373 163.752C184.669 163.752 182.749 165.56 182.749 168.12C182.749 170.68 184.669 172.504 187.373 172.504ZM200.657 168.168C200.657 165.496 198.833 163.752 196.337 163.752C193.793 163.752 191.921 165.576 191.921 168.12C191.921 170.664 193.777 172.504 196.641 172.504C198.113 172.504 199.312 172.024 200.081 171.112L199.009 169.88C198.401 170.504 197.649 170.808 196.689 170.808C195.201 170.808 194.161 170.008 193.921 168.76H200.625C200.641 168.568 200.657 168.328 200.657 168.168ZM196.337 165.352C197.649 165.352 198.593 166.2 198.753 167.432H193.905C194.097 166.184 195.041 165.352 196.337 165.352ZM201.977 165.624H203.433L203.577 161.192H201.849L201.977 165.624ZM205.065 165.624H206.521L206.665 161.192H204.937L205.065 165.624Z" fill="#1D2128"/>
<path d="M66.476 248.552C69.548 248.552 71.004 247.016 71.004 245.224C71.004 241.112 64.364 242.664 64.364 240.28C64.364 239.432 65.068 238.76 66.796 238.76C67.772 238.76 68.876 239.048 69.884 239.64L70.54 238.024C69.564 237.384 68.156 237.032 66.812 237.032C63.74 237.032 62.3 238.568 62.3 240.376C62.3 244.536 68.956 242.952 68.956 245.368C68.956 246.2 68.22 246.824 66.476 246.824C65.1 246.824 63.676 246.312 62.78 245.592L62.06 247.208C62.988 248.008 64.732 248.552 66.476 248.552ZM79.1465 239.848V244.168C79.1465 245.88 78.2025 246.744 76.8105 246.744C75.5465 246.744 74.8105 246.008 74.8105 244.456V239.848H72.8105V244.728C72.8105 247.304 74.2985 248.504 76.4905 248.504C77.5945 248.504 78.6025 248.088 79.2425 247.304V248.392H81.1465V239.848H79.1465ZM88.5011 239.752C87.4131 239.752 86.4531 240.12 85.7651 240.888V236.52H83.7651V248.392H85.6691V247.288C86.3411 248.104 87.3331 248.504 88.5011 248.504C90.9971 248.504 92.8371 246.776 92.8371 244.12C92.8371 241.464 90.9971 239.752 88.5011 239.752ZM88.2771 246.792C86.8371 246.792 85.7331 245.752 85.7331 244.12C85.7331 242.488 86.8371 241.448 88.2771 241.448C89.7171 241.448 90.8051 242.488 90.8051 244.12C90.8051 245.752 89.7171 246.792 88.2771 246.792ZM105.518 239.752C104.158 239.752 103.006 240.296 102.318 241.176C101.726 240.216 100.686 239.752 99.4379 239.752C98.2699 239.752 97.2779 240.168 96.6379 240.936V239.848H94.7339V248.392H96.7339V244.056C96.7339 242.36 97.6299 241.496 98.9579 241.496C100.174 241.496 100.878 242.232 100.878 243.752V248.392H102.878V244.056C102.878 242.36 103.79 241.496 105.102 241.496C106.318 241.496 107.022 242.232 107.022 243.752V248.392H109.022V243.496C109.022 240.92 107.582 239.752 105.518 239.752ZM119.688 244.168C119.688 241.496 117.864 239.752 115.368 239.752C112.824 239.752 110.952 241.576 110.952 244.12C110.952 246.664 112.808 248.504 115.672 248.504C117.144 248.504 118.344 248.024 119.112 247.112L118.04 245.88C117.432 246.504 116.68 246.808 115.72 246.808C114.232 246.808 113.192 246.008 112.952 244.76H119.656C119.672 244.568 119.688 244.328 119.688 244.168ZM115.368 241.352C116.68 241.352 117.624 242.2 117.784 243.432H112.936C113.128 242.184 114.072 241.352 115.368 241.352ZM126.457 239.752C125.209 239.752 124.169 240.168 123.513 240.952V239.848H121.609V248.392H123.609V244.072C123.609 242.36 124.569 241.496 125.993 241.496C127.273 241.496 128.025 242.232 128.025 243.752V248.392H130.025V243.496C130.025 240.92 128.505 239.752 126.457 239.752ZM138.834 239.848V244.168C138.834 245.88 137.89 246.744 136.498 246.744C135.234 246.744 134.498 246.008 134.498 244.456V239.848H132.498V244.728C132.498 247.304 133.986 248.504 136.178 248.504C137.282 248.504 138.29 248.088 138.93 247.304V248.392H140.834V239.848H138.834ZM147.587 241.624H149.043L149.187 237.192H147.459L147.587 241.624ZM150.674 241.624H152.131L152.275 237.192H150.547L150.674 241.624ZM156.756 246.648V243.56H162.164V241.848H156.756V238.936H162.852V237.192H154.676V248.392H163.076V246.648H156.756ZM172.742 248.392L169.398 244.024L172.598 239.848H170.438L168.342 242.648L166.246 239.848H164.022L167.206 244.056L163.878 248.392H166.086L168.294 245.432L170.486 248.392H172.742ZM178.794 246.504C178.49 246.744 178.09 246.856 177.674 246.856C176.906 246.856 176.49 246.408 176.49 245.576V241.512H178.778V239.912H176.49V237.96H174.49V239.912H173.082V241.512H174.49V245.624C174.49 247.512 175.562 248.504 177.434 248.504C178.154 248.504 178.874 248.312 179.354 247.928L178.794 246.504ZM182.904 241.096V239.848H181V248.392H183V244.248C183 242.504 183.96 241.608 185.48 241.608C185.624 241.608 185.768 241.624 185.944 241.656V239.752C184.52 239.752 183.48 240.2 182.904 241.096ZM190.857 239.752C189.481 239.752 188.153 240.104 187.241 240.808L188.025 242.264C188.665 241.736 189.657 241.416 190.617 241.416C192.041 241.416 192.745 242.104 192.745 243.272V243.4H190.537C187.945 243.4 186.985 244.52 186.985 245.944C186.985 247.432 188.217 248.504 190.169 248.504C191.449 248.504 192.377 248.088 192.857 247.352V248.392H194.745V243.384C194.745 240.92 193.321 239.752 190.857 239.752ZM190.585 247.048C189.561 247.048 188.953 246.584 188.953 245.864C188.953 245.24 189.321 244.728 190.681 244.728H192.745V245.72C192.409 246.6 191.561 247.048 190.585 247.048ZM202.742 238.44C203.494 238.44 204.022 237.896 204.022 237.192C204.022 236.536 203.478 236.04 202.742 236.04C202.006 236.04 201.462 236.568 201.462 237.24C201.462 237.912 202.006 238.44 202.742 238.44ZM201.734 248.392H203.734V239.848H201.734V248.392ZM211.207 239.752C209.959 239.752 208.919 240.168 208.263 240.952V239.848H206.359V248.392H208.359V244.072C208.359 242.36 209.319 241.496 210.743 241.496C212.023 241.496 212.775 242.232 212.775 243.752V248.392H214.775V243.496C214.775 240.92 213.255 239.752 211.207 239.752ZM219.952 248.504C222.352 248.504 223.824 247.464 223.824 245.864C223.824 242.52 218.544 244.056 218.544 242.328C218.544 241.768 219.12 241.368 220.336 241.368C221.152 241.368 221.968 241.528 222.784 242.008L223.552 240.488C222.784 240.024 221.488 239.752 220.352 239.752C218.048 239.752 216.592 240.808 216.592 242.424C216.592 245.832 221.872 244.296 221.872 245.928C221.872 246.52 221.344 246.872 220.08 246.872C219.008 246.872 217.856 246.52 217.104 246.024L216.336 247.544C217.104 248.088 218.528 248.504 219.952 248.504ZM231.818 239.848V244.168C231.818 245.88 230.874 246.744 229.482 246.744C228.218 246.744 227.482 246.008 227.482 244.456V239.848H225.482V244.728C225.482 247.304 226.97 248.504 229.162 248.504C230.266 248.504 231.274 248.088 231.914 247.304V248.392H233.818V239.848H231.818ZM238.341 241.096V239.848H236.437V248.392H238.437V244.248C238.437 242.504 239.397 241.608 240.917 241.608C241.061 241.608 241.205 241.624 241.381 241.656V239.752C239.957 239.752 238.917 240.2 238.341 241.096ZM246.295 239.752C244.919 239.752 243.591 240.104 242.679 240.808L243.463 242.264C244.103 241.736 245.095 241.416 246.055 241.416C247.479 241.416 248.183 242.104 248.183 243.272V243.4H245.975C243.383 243.4 242.423 244.52 242.423 245.944C242.423 247.432 243.655 248.504 245.607 248.504C246.887 248.504 247.815 248.088 248.295 247.352V248.392H250.183V243.384C250.183 240.92 248.759 239.752 246.295 239.752ZM246.023 247.048C244.999 247.048 244.391 246.584 244.391 245.864C244.391 245.24 244.759 244.728 246.119 244.728H248.183V245.72C247.847 246.6 246.999 247.048 246.023 247.048ZM257.598 239.752C256.35 239.752 255.31 240.168 254.654 240.952V239.848H252.75V248.392H254.75V244.072C254.75 242.36 255.71 241.496 257.134 241.496C258.414 241.496 259.166 242.232 259.166 243.752V248.392H261.166V243.496C261.166 240.92 259.646 239.752 257.598 239.752ZM267.701 248.504C269.365 248.504 270.693 247.784 271.349 246.504L269.813 245.608C269.301 246.424 268.533 246.792 267.685 246.792C266.213 246.792 265.093 245.784 265.093 244.12C265.093 242.472 266.213 241.448 267.685 241.448C268.533 241.448 269.301 241.816 269.813 242.632L271.349 241.736C270.693 240.44 269.365 239.752 267.701 239.752C264.997 239.752 263.077 241.56 263.077 244.12C263.077 246.68 264.997 248.504 267.701 248.504ZM280.985 244.168C280.985 241.496 279.161 239.752 276.665 239.752C274.121 239.752 272.249 241.576 272.249 244.12C272.249 246.664 274.105 248.504 276.969 248.504C278.441 248.504 279.641 248.024 280.409 247.112L279.337 245.88C278.729 246.504 277.977 246.808 277.017 246.808C275.529 246.808 274.489 246.008 274.249 244.76H280.953C280.969 244.568 280.985 244.328 280.985 244.168ZM276.665 241.352C277.977 241.352 278.921 242.2 279.081 243.432H274.233C274.425 242.184 275.369 241.352 276.665 241.352ZM285.546 248.504C287.946 248.504 289.418 247.464 289.418 245.864C289.418 242.52 284.138 244.056 284.138 242.328C284.138 241.768 284.714 241.368 285.93 241.368C286.746 241.368 287.562 241.528 288.378 242.008L289.146 240.488C288.378 240.024 287.082 239.752 285.946 239.752C283.642 239.752 282.186 240.808 282.186 242.424C282.186 245.832 287.466 244.296 287.466 245.928C287.466 246.52 286.938 246.872 285.674 246.872C284.602 246.872 283.45 246.52 282.698 246.024L281.93 247.544C282.698 248.088 284.122 248.504 285.546 248.504ZM290.852 241.624H292.308L292.452 237.192H290.724L290.852 241.624ZM293.94 241.624H295.396L295.54 237.192H293.812L293.94 241.624Z" fill="#1D2128"/>
<circle cx="23.5" cy="17.4702" r="7.5" fill="#52B392"/>
<path d="M23.4997 14.3923L23.5 244.814" stroke="#52B392"/>
<circle cx="23.5" cy="166.392" r="23" fill="#52B392"/>
<path d="M15.5 157.503L23.5 156.392L31.5 157.503V166.653C31.5 169.274 30.216 171.728 28.0632 173.223L23.5 176.392L18.9368 173.223C16.784 171.728 15.5 169.274 15.5 166.653V157.503Z" stroke="white" stroke-width="1.75" stroke-linecap="round" stroke-linejoin="round"/>
<path d="M27.5 163.392L22.65 168.392L20.5 166.182" stroke="white" stroke-width="1.75" stroke-miterlimit="10" stroke-linecap="round" stroke-linejoin="round"/>
<circle cx="23.5" cy="90.3923" r="23" fill="#52B392"/>
<path d="M23.5 90.3923C17.98 90.3923 13.5 94.8723 13.5 100.392C13.52 100.392 33.5 100.392 33.5 100.392C33.5 94.8723 29.02 90.3923 23.5 90.3923Z" stroke="white" stroke-width="1.75" stroke-miterlimit="10" stroke-linecap="round" stroke-linejoin="round"/>
<path d="M23.5 90.3923C26.2614 90.3923 28.5 88.1537 28.5 85.3923C28.5 82.6309 26.2614 80.3923 23.5 80.3923C20.7386 80.3923 18.5 82.6309 18.5 85.3923C18.5 88.1537 20.7386 90.3923 23.5 90.3923Z" stroke="white" stroke-width="1.75" stroke-miterlimit="10" stroke-linecap="round" stroke-linejoin="round"/>
<circle cx="23.5" cy="242.392" r="23" fill="#52B392"/>
<path d="M33.5 249.392H13.5" stroke="white" stroke-width="1.75" stroke-miterlimit="10" stroke-linecap="round" stroke-linejoin="round"/>
<path d="M13.5 242.392H33.5" stroke="white" stroke-width="1.75" stroke-miterlimit="10" stroke-linecap="round" stroke-linejoin="round"/>
<path d="M13.5 235.392H33.5" stroke="white" stroke-width="1.75" stroke-miterlimit="10" stroke-linecap="round" stroke-linejoin="round"/>
</svg>
