<svg width="297" height="265" viewBox="0 0 297 265" fill="none" xmlns="http://www.w3.org/2000/svg">
<path d="M76.736 7.8V15.314H67.324V7.8H63.944V26H67.324V18.2H76.736V26H80.116V7.8H76.736ZM90.9208 26.182C95.2368 26.182 98.3308 23.218 98.3308 19.058C98.3308 14.898 95.2368 11.96 90.9208 11.96C86.6568 11.96 83.5368 14.898 83.5368 19.058C83.5368 23.218 86.6568 26.182 90.9208 26.182ZM90.9208 23.4C88.5808 23.4 86.8128 21.71 86.8128 19.058C86.8128 16.406 88.5808 14.716 90.9208 14.716C93.2868 14.716 95.0548 16.406 95.0548 19.058C95.0548 21.71 93.2868 23.4 90.9208 23.4ZM119.83 12.116L116.06 22.412L112.316 12.116H109.586L105.764 22.36L102.098 12.116H99.0298L104.126 26H107.246L110.886 16.432L114.474 26H117.594L122.716 12.116H119.83ZM139.572 22.932C139.078 23.322 138.428 23.504 137.752 23.504C136.504 23.504 135.828 22.776 135.828 21.424V14.82H139.546V12.22H135.828V9.048H132.578V12.22H130.29V14.82H132.578V21.502C132.578 24.57 134.32 26.182 137.362 26.182C138.532 26.182 139.702 25.87 140.482 25.246L139.572 22.932ZM148.938 26.182C153.254 26.182 156.348 23.218 156.348 19.058C156.348 14.898 153.254 11.96 148.938 11.96C144.674 11.96 141.554 14.898 141.554 19.058C141.554 23.218 144.674 26.182 148.938 26.182ZM148.938 23.4C146.598 23.4 144.83 21.71 144.83 19.058C144.83 16.406 146.598 14.716 148.938 14.716C151.304 14.716 153.072 16.406 153.072 19.058C153.072 21.71 151.304 23.4 148.938 23.4ZM171.946 11.96C169.71 11.96 167.552 12.532 166.07 13.676L167.344 16.042C168.384 15.184 169.996 14.664 171.556 14.664C173.87 14.664 175.014 15.782 175.014 17.68V17.888H171.426C167.214 17.888 165.654 19.708 165.654 22.022C165.654 24.44 167.656 26.182 170.828 26.182C172.908 26.182 174.416 25.506 175.196 24.31V26H178.264V17.862C178.264 13.858 175.95 11.96 171.946 11.96ZM171.504 23.816C169.84 23.816 168.852 23.062 168.852 21.892C168.852 20.878 169.45 20.046 171.66 20.046H175.014V21.658C174.468 23.088 173.09 23.816 171.504 23.816ZM190.131 11.96C188.233 11.96 186.621 12.61 185.529 13.936V12.116H182.435V31.044H185.685V24.31C186.803 25.584 188.363 26.182 190.131 26.182C194.187 26.182 197.177 23.374 197.177 19.058C197.177 14.768 194.187 11.96 190.131 11.96ZM189.767 23.4C187.427 23.4 185.633 21.71 185.633 19.058C185.633 16.406 187.427 14.716 189.767 14.716C192.107 14.716 193.875 16.406 193.875 19.058C193.875 21.71 192.107 23.4 189.767 23.4ZM207.955 11.96C206.057 11.96 204.445 12.61 203.353 13.936V12.116H200.259V31.044H203.509V24.31C204.627 25.584 206.187 26.182 207.955 26.182C212.011 26.182 215.001 23.374 215.001 19.058C215.001 14.768 212.011 11.96 207.955 11.96ZM207.591 23.4C205.251 23.4 203.457 21.71 203.457 19.058C203.457 16.406 205.251 14.716 207.591 14.716C209.931 14.716 211.699 16.406 211.699 19.058C211.699 21.71 209.931 23.4 207.591 23.4ZM218.083 26H221.333V6.708H218.083V26ZM235.479 12.116L231.085 22.386L226.717 12.116H223.337L229.395 26.052L229.161 26.598C228.537 27.976 227.861 28.522 226.717 28.522C225.833 28.522 224.949 28.158 224.325 27.56L223.025 29.952C223.909 30.758 225.365 31.226 226.743 31.226C229.057 31.226 230.825 30.264 232.099 27.118L238.599 12.116H235.479ZM245.184 19.968H248.486C248.486 16.9 252.932 16.51 252.932 12.272C252.932 9.282 250.384 7.54 246.562 7.54C243.312 7.54 240.972 8.736 239.516 10.712L242.038 12.35C242.948 11.076 244.352 10.348 246.276 10.348C248.278 10.348 249.526 11.336 249.526 12.792C249.526 15.392 245.184 16.12 245.184 19.968ZM246.848 26.182C248.044 26.182 248.902 25.272 248.902 24.154C248.902 23.036 248.044 22.152 246.848 22.152C245.626 22.152 244.768 23.036 244.768 24.154C244.768 25.272 245.626 26.182 246.848 26.182Z" fill="#1D2128"/>
<path d="M70.652 93.1819C69.932 93.5979 69.148 93.7579 68.348 93.7579C65.98 93.7579 64.3 92.0939 64.3 89.8219C64.3 87.5019 65.98 85.8859 68.364 85.8859C69.564 85.8859 70.572 86.2859 71.452 87.1659L72.764 85.8859C71.708 84.6859 70.14 84.0619 68.268 84.0619C64.764 84.0619 62.204 86.4779 62.204 89.8219C62.204 93.1659 64.764 95.5819 68.236 95.5819C69.82 95.5819 71.452 95.1019 72.62 94.1579V89.6939H70.652V93.1819ZM79.0114 95.5339C81.6674 95.5339 83.5714 93.7099 83.5714 91.1499C83.5714 88.5899 81.6674 86.7819 79.0114 86.7819C76.3874 86.7819 74.4674 88.5899 74.4674 91.1499C74.4674 93.7099 76.3874 95.5339 79.0114 95.5339ZM79.0114 93.8219C77.5714 93.8219 76.4834 92.7819 76.4834 91.1499C76.4834 89.5179 77.5714 88.4779 79.0114 88.4779C80.4674 88.4779 81.5554 89.5179 81.5554 91.1499C81.5554 92.7819 80.4674 93.8219 79.0114 93.8219ZM94.4818 93.5339C94.1778 93.7739 93.7778 93.8859 93.3618 93.8859C92.5938 93.8859 92.1778 93.4379 92.1778 92.6059V88.5419H94.4658V86.9419H92.1778V84.9899H90.1778V86.9419H88.7698V88.5419H90.1778V92.6539C90.1778 94.5419 91.2498 95.5339 93.1218 95.5339C93.8418 95.5339 94.5618 95.3419 95.0418 94.9579L94.4818 93.5339ZM100.246 95.5339C102.902 95.5339 104.806 93.7099 104.806 91.1499C104.806 88.5899 102.902 86.7819 100.246 86.7819C97.6218 86.7819 95.7018 88.5899 95.7018 91.1499C95.7018 93.7099 97.6218 95.5339 100.246 95.5339ZM100.246 93.8219C98.8058 93.8219 97.7178 92.7819 97.7178 91.1499C97.7178 89.5179 98.8058 88.4779 100.246 88.4779C101.702 88.4779 102.79 89.5179 102.79 91.1499C102.79 92.7819 101.702 93.8219 100.246 93.8219Z" fill="#1D2128"/>
<path d="M110.852 88.6539H112.308L112.452 84.2219H110.724L110.852 88.6539ZM113.94 88.6539H115.396L115.54 84.2219H113.812L113.94 88.6539ZM130.198 95.4219L130.182 84.2219H128.47L124.102 91.6459L119.654 84.2219H117.942V95.4219H119.926V88.0939L123.606 94.1419H124.534L128.214 87.9979L128.23 95.4219H130.198ZM139.111 86.8779L136.407 93.1979L133.719 86.8779H131.639L135.367 95.4539L135.223 95.7899C134.839 96.6379 134.423 96.9739 133.719 96.9739C133.175 96.9739 132.631 96.7499 132.247 96.3819L131.447 97.8539C131.991 98.3499 132.887 98.6379 133.735 98.6379C135.159 98.6379 136.247 98.0459 137.031 96.1099L141.031 86.8779H139.111ZM149.967 86.7819C148.591 86.7819 147.263 87.1339 146.351 87.8379L147.135 89.2939C147.775 88.7659 148.767 88.4459 149.727 88.4459C151.151 88.4459 151.855 89.1339 151.855 90.3019V90.4299H149.647C147.055 90.4299 146.095 91.5499 146.095 92.9739C146.095 94.4619 147.327 95.5339 149.279 95.5339C150.559 95.5339 151.487 95.1179 151.967 94.3819V95.4219H153.855V90.4139C153.855 87.9499 152.431 86.7819 149.967 86.7819ZM149.695 94.0779C148.671 94.0779 148.063 93.6139 148.063 92.8939C148.063 92.2699 148.431 91.7579 149.791 91.7579H151.855V92.7499C151.519 93.6299 150.671 94.0779 149.695 94.0779ZM160.42 95.5339C162.084 95.5339 163.411 94.8139 164.068 93.5339L162.532 92.6379C162.02 93.4539 161.252 93.8219 160.404 93.8219C158.932 93.8219 157.812 92.8139 157.812 91.1499C157.812 89.5019 158.932 88.4779 160.404 88.4779C161.252 88.4779 162.02 88.8459 162.532 89.6619L164.068 88.7659C163.411 87.4699 162.084 86.7819 160.42 86.7819C157.716 86.7819 155.796 88.5899 155.796 91.1499C155.796 93.7099 157.716 95.5339 160.42 95.5339ZM169.591 95.5339C171.255 95.5339 172.583 94.8139 173.239 93.5339L171.703 92.6379C171.191 93.4539 170.423 93.8219 169.575 93.8219C168.103 93.8219 166.983 92.8139 166.983 91.1499C166.983 89.5019 168.103 88.4779 169.575 88.4779C170.423 88.4779 171.191 88.8459 171.703 89.6619L173.239 88.7659C172.583 87.4699 171.255 86.7819 169.591 86.7819C166.887 86.7819 164.967 88.5899 164.967 91.1499C164.967 93.7099 166.887 95.5339 169.591 95.5339ZM178.683 95.5339C181.339 95.5339 183.243 93.7099 183.243 91.1499C183.243 88.5899 181.339 86.7819 178.683 86.7819C176.059 86.7819 174.139 88.5899 174.139 91.1499C174.139 93.7099 176.059 95.5339 178.683 95.5339ZM178.683 93.8219C177.243 93.8219 176.155 92.7819 176.155 91.1499C176.155 89.5179 177.243 88.4779 178.683 88.4779C180.139 88.4779 181.227 89.5179 181.227 91.1499C181.227 92.7819 180.139 93.8219 178.683 93.8219ZM191.428 86.8779V91.1979C191.428 92.9099 190.484 93.7739 189.092 93.7739C187.828 93.7739 187.092 93.0379 187.092 91.4859V86.8779H185.092V91.7579C185.092 94.3339 186.58 95.5339 188.772 95.5339C189.876 95.5339 190.884 95.1179 191.524 94.3339V95.4219H193.428V86.8779H191.428ZM200.894 86.7819C199.646 86.7819 198.606 87.1979 197.95 87.9819V86.8779H196.046V95.4219H198.046V91.1019C198.046 89.3899 199.006 88.5259 200.43 88.5259C201.71 88.5259 202.462 89.2619 202.462 90.7819V95.4219H204.462V90.5259C204.462 87.9499 202.942 86.7819 200.894 86.7819ZM211.576 93.5339C211.272 93.7739 210.872 93.8859 210.456 93.8859C209.688 93.8859 209.272 93.4379 209.272 92.6059V88.5419H211.56V86.9419H209.272V84.9899H207.272V86.9419H205.864V88.5419H207.272V92.6539C207.272 94.5419 208.344 95.5339 210.216 95.5339C210.936 95.5339 211.656 95.3419 212.136 94.9579L211.576 93.5339ZM213.493 88.6539H214.949L215.093 84.2219H213.365L213.493 88.6539ZM216.581 88.6539H218.037L218.181 84.2219H216.453L216.581 88.6539Z" fill="#52B392"/>
<path d="M75.26 171.422L75.244 160.222H73.532L69.164 167.646L64.716 160.222H63.004V171.422H64.988V164.094L68.668 170.142H69.596L73.276 163.998L73.292 171.422H75.26ZM86.1253 167.198C86.1253 164.526 84.3013 162.782 81.8053 162.782C79.2613 162.782 77.3893 164.606 77.3893 167.15C77.3893 169.694 79.2453 171.534 82.1093 171.534C83.5813 171.534 84.7812 171.054 85.5493 170.142L84.4773 168.91C83.8693 169.534 83.1173 169.838 82.1573 169.838C80.6693 169.838 79.6293 169.038 79.3893 167.79H86.0933C86.1093 167.598 86.1253 167.358 86.1253 167.198ZM81.8053 164.382C83.1173 164.382 84.0613 165.23 84.2213 166.462H79.3733C79.5653 165.214 80.5093 164.382 81.8053 164.382ZM92.8944 162.782C91.6464 162.782 90.6064 163.198 89.9504 163.982V162.878H88.0464V171.422H90.0464V167.102C90.0464 165.39 91.0064 164.526 92.4304 164.526C93.7104 164.526 94.4624 165.262 94.4624 166.782V171.422H96.4624V166.526C96.4624 163.95 94.9424 162.782 92.8944 162.782ZM105.272 162.878V167.198C105.272 168.91 104.328 169.774 102.936 169.774C101.672 169.774 100.936 169.038 100.936 167.486V162.878H98.9355V167.758C98.9355 170.334 100.424 171.534 102.616 171.534C103.72 171.534 104.728 171.118 105.368 170.334V171.422H107.272V162.878H105.272ZM114.024 164.654H115.48L115.624 160.222H113.896L114.024 164.654ZM117.112 164.654H118.568L118.712 160.222H116.984L117.112 164.654ZM121.113 171.422H123.193V160.222H121.113V171.422ZM130.879 162.782C129.631 162.782 128.591 163.198 127.935 163.982V162.878H126.031V171.422H128.031V167.102C128.031 165.39 128.991 164.526 130.415 164.526C131.695 164.526 132.447 165.262 132.447 166.782V171.422H134.447V166.526C134.447 163.95 132.927 162.782 130.879 162.782ZM139.624 171.534C142.024 171.534 143.496 170.494 143.496 168.894C143.496 165.55 138.216 167.086 138.216 165.358C138.216 164.798 138.792 164.398 140.008 164.398C140.824 164.398 141.64 164.558 142.456 165.038L143.224 163.518C142.456 163.054 141.16 162.782 140.024 162.782C137.72 162.782 136.264 163.838 136.264 165.454C136.264 168.862 141.544 167.326 141.544 168.958C141.544 169.55 141.016 169.902 139.752 169.902C138.68 169.902 137.528 169.55 136.776 169.054L136.008 170.574C136.776 171.118 138.2 171.534 139.624 171.534ZM151.49 162.878V167.198C151.49 168.91 150.546 169.774 149.154 169.774C147.89 169.774 147.154 169.038 147.154 167.486V162.878H145.154V167.758C145.154 170.334 146.642 171.534 148.834 171.534C149.938 171.534 150.946 171.118 151.586 170.334V171.422H153.49V162.878H151.49ZM158.013 164.126V162.878H156.109V171.422H158.109V167.278C158.109 165.534 159.069 164.638 160.589 164.638C160.733 164.638 160.877 164.654 161.053 164.686V162.782C159.629 162.782 158.589 163.23 158.013 164.126ZM165.967 162.782C164.591 162.782 163.263 163.134 162.351 163.838L163.135 165.294C163.775 164.766 164.767 164.446 165.727 164.446C167.151 164.446 167.855 165.134 167.855 166.302V166.43H165.647C163.055 166.43 162.095 167.55 162.095 168.974C162.095 170.462 163.327 171.534 165.279 171.534C166.559 171.534 167.487 171.118 167.967 170.382V171.422H169.855V166.414C169.855 163.95 168.431 162.782 165.967 162.782ZM165.695 170.078C164.671 170.078 164.063 169.614 164.063 168.894C164.063 168.27 164.431 167.758 165.791 167.758H167.855V168.75C167.519 169.63 166.671 170.078 165.695 170.078ZM177.269 162.782C176.021 162.782 174.981 163.198 174.325 163.982V162.878H172.421V171.422H174.421V167.102C174.421 165.39 175.381 164.526 176.805 164.526C178.085 164.526 178.837 165.262 178.837 166.782V171.422H180.837V166.526C180.837 163.95 179.317 162.782 177.269 162.782ZM187.373 171.534C189.037 171.534 190.365 170.814 191.021 169.534L189.485 168.638C188.973 169.454 188.205 169.822 187.357 169.822C185.885 169.822 184.765 168.814 184.765 167.15C184.765 165.502 185.885 164.478 187.357 164.478C188.205 164.478 188.973 164.846 189.485 165.662L191.021 164.766C190.365 163.47 189.037 162.782 187.373 162.782C184.669 162.782 182.749 164.59 182.749 167.15C182.749 169.71 184.669 171.534 187.373 171.534ZM200.657 167.198C200.657 164.526 198.833 162.782 196.337 162.782C193.793 162.782 191.921 164.606 191.921 167.15C191.921 169.694 193.777 171.534 196.641 171.534C198.113 171.534 199.312 171.054 200.081 170.142L199.009 168.91C198.401 169.534 197.649 169.838 196.689 169.838C195.201 169.838 194.161 169.038 193.921 167.79H200.625C200.641 167.598 200.657 167.358 200.657 167.198ZM196.337 164.382C197.649 164.382 198.593 165.23 198.753 166.462H193.905C194.097 165.214 195.041 164.382 196.337 164.382ZM201.977 164.654H203.433L203.577 160.222H201.849L201.977 164.654ZM205.065 164.654H206.521L206.665 160.222H204.937L205.065 164.654Z" fill="#1D2128"/>
<path d="M66.476 247.582C69.548 247.582 71.004 246.046 71.004 244.254C71.004 240.142 64.364 241.694 64.364 239.31C64.364 238.462 65.068 237.79 66.796 237.79C67.772 237.79 68.876 238.078 69.884 238.67L70.54 237.054C69.564 236.414 68.156 236.062 66.812 236.062C63.74 236.062 62.3 237.598 62.3 239.406C62.3 243.566 68.956 241.982 68.956 244.398C68.956 245.23 68.22 245.854 66.476 245.854C65.1 245.854 63.676 245.342 62.78 244.622L62.06 246.238C62.988 247.038 64.732 247.582 66.476 247.582ZM79.1465 238.878V243.198C79.1465 244.91 78.2025 245.774 76.8105 245.774C75.5465 245.774 74.8105 245.038 74.8105 243.486V238.878H72.8105V243.758C72.8105 246.334 74.2985 247.534 76.4905 247.534C77.5945 247.534 78.6025 247.118 79.2425 246.334V247.422H81.1465V238.878H79.1465ZM88.5011 238.782C87.4131 238.782 86.4531 239.15 85.7651 239.918V235.55H83.7651V247.422H85.6691V246.318C86.3411 247.134 87.3331 247.534 88.5011 247.534C90.9971 247.534 92.8371 245.806 92.8371 243.15C92.8371 240.494 90.9971 238.782 88.5011 238.782ZM88.2771 245.822C86.8371 245.822 85.7331 244.782 85.7331 243.15C85.7331 241.518 86.8371 240.478 88.2771 240.478C89.7171 240.478 90.8051 241.518 90.8051 243.15C90.8051 244.782 89.7171 245.822 88.2771 245.822ZM105.518 238.782C104.158 238.782 103.006 239.326 102.318 240.206C101.726 239.246 100.686 238.782 99.4379 238.782C98.2699 238.782 97.2779 239.198 96.6379 239.966V238.878H94.7339V247.422H96.7339V243.086C96.7339 241.39 97.6299 240.526 98.9579 240.526C100.174 240.526 100.878 241.262 100.878 242.782V247.422H102.878V243.086C102.878 241.39 103.79 240.526 105.102 240.526C106.318 240.526 107.022 241.262 107.022 242.782V247.422H109.022V242.526C109.022 239.95 107.582 238.782 105.518 238.782ZM119.688 243.198C119.688 240.526 117.864 238.782 115.368 238.782C112.824 238.782 110.952 240.606 110.952 243.15C110.952 245.694 112.808 247.534 115.672 247.534C117.144 247.534 118.344 247.054 119.112 246.142L118.04 244.91C117.432 245.534 116.68 245.838 115.72 245.838C114.232 245.838 113.192 245.038 112.952 243.79H119.656C119.672 243.598 119.688 243.358 119.688 243.198ZM115.368 240.382C116.68 240.382 117.624 241.23 117.784 242.462H112.936C113.128 241.214 114.072 240.382 115.368 240.382ZM126.457 238.782C125.209 238.782 124.169 239.198 123.513 239.982V238.878H121.609V247.422H123.609V243.102C123.609 241.39 124.569 240.526 125.993 240.526C127.273 240.526 128.025 241.262 128.025 242.782V247.422H130.025V242.526C130.025 239.95 128.505 238.782 126.457 238.782ZM138.834 238.878V243.198C138.834 244.91 137.89 245.774 136.498 245.774C135.234 245.774 134.498 245.038 134.498 243.486V238.878H132.498V243.758C132.498 246.334 133.986 247.534 136.178 247.534C137.282 247.534 138.29 247.118 138.93 246.334V247.422H140.834V238.878H138.834ZM147.587 240.654H149.043L149.187 236.222H147.459L147.587 240.654ZM150.674 240.654H152.131L152.275 236.222H150.547L150.674 240.654ZM156.756 245.678V242.59H162.164V240.878H156.756V237.966H162.852V236.222H154.676V247.422H163.076V245.678H156.756ZM172.742 247.422L169.398 243.054L172.598 238.878H170.438L168.342 241.678L166.246 238.878H164.022L167.206 243.086L163.878 247.422H166.086L168.294 244.462L170.486 247.422H172.742ZM178.794 245.534C178.49 245.774 178.09 245.886 177.674 245.886C176.906 245.886 176.49 245.438 176.49 244.606V240.542H178.778V238.942H176.49V236.99H174.49V238.942H173.082V240.542H174.49V244.654C174.49 246.542 175.562 247.534 177.434 247.534C178.154 247.534 178.874 247.342 179.354 246.958L178.794 245.534ZM182.904 240.126V238.878H181V247.422H183V243.278C183 241.534 183.96 240.638 185.48 240.638C185.624 240.638 185.768 240.654 185.944 240.686V238.782C184.52 238.782 183.48 239.23 182.904 240.126ZM190.857 238.782C189.481 238.782 188.153 239.134 187.241 239.838L188.025 241.294C188.665 240.766 189.657 240.446 190.617 240.446C192.041 240.446 192.745 241.134 192.745 242.302V242.43H190.537C187.945 242.43 186.985 243.55 186.985 244.974C186.985 246.462 188.217 247.534 190.169 247.534C191.449 247.534 192.377 247.118 192.857 246.382V247.422H194.745V242.414C194.745 239.95 193.321 238.782 190.857 238.782ZM190.585 246.078C189.561 246.078 188.953 245.614 188.953 244.894C188.953 244.27 189.321 243.758 190.681 243.758H192.745V244.75C192.409 245.63 191.561 246.078 190.585 246.078ZM202.742 237.47C203.494 237.47 204.022 236.926 204.022 236.222C204.022 235.566 203.478 235.07 202.742 235.07C202.006 235.07 201.462 235.598 201.462 236.27C201.462 236.942 202.006 237.47 202.742 237.47ZM201.734 247.422H203.734V238.878H201.734V247.422ZM211.207 238.782C209.959 238.782 208.919 239.198 208.263 239.982V238.878H206.359V247.422H208.359V243.102C208.359 241.39 209.319 240.526 210.743 240.526C212.023 240.526 212.775 241.262 212.775 242.782V247.422H214.775V242.526C214.775 239.95 213.255 238.782 211.207 238.782ZM219.952 247.534C222.352 247.534 223.824 246.494 223.824 244.894C223.824 241.55 218.544 243.086 218.544 241.358C218.544 240.798 219.12 240.398 220.336 240.398C221.152 240.398 221.968 240.558 222.784 241.038L223.552 239.518C222.784 239.054 221.488 238.782 220.352 238.782C218.048 238.782 216.592 239.838 216.592 241.454C216.592 244.862 221.872 243.326 221.872 244.958C221.872 245.55 221.344 245.902 220.08 245.902C219.008 245.902 217.856 245.55 217.104 245.054L216.336 246.574C217.104 247.118 218.528 247.534 219.952 247.534ZM231.818 238.878V243.198C231.818 244.91 230.874 245.774 229.482 245.774C228.218 245.774 227.482 245.038 227.482 243.486V238.878H225.482V243.758C225.482 246.334 226.97 247.534 229.162 247.534C230.266 247.534 231.274 247.118 231.914 246.334V247.422H233.818V238.878H231.818ZM238.341 240.126V238.878H236.437V247.422H238.437V243.278C238.437 241.534 239.397 240.638 240.917 240.638C241.061 240.638 241.205 240.654 241.381 240.686V238.782C239.957 238.782 238.917 239.23 238.341 240.126ZM246.295 238.782C244.919 238.782 243.591 239.134 242.679 239.838L243.463 241.294C244.103 240.766 245.095 240.446 246.055 240.446C247.479 240.446 248.183 241.134 248.183 242.302V242.43H245.975C243.383 242.43 242.423 243.55 242.423 244.974C242.423 246.462 243.655 247.534 245.607 247.534C246.887 247.534 247.815 247.118 248.295 246.382V247.422H250.183V242.414C250.183 239.95 248.759 238.782 246.295 238.782ZM246.023 246.078C244.999 246.078 244.391 245.614 244.391 244.894C244.391 244.27 244.759 243.758 246.119 243.758H248.183V244.75C247.847 245.63 246.999 246.078 246.023 246.078ZM257.598 238.782C256.35 238.782 255.31 239.198 254.654 239.982V238.878H252.75V247.422H254.75V243.102C254.75 241.39 255.71 240.526 257.134 240.526C258.414 240.526 259.166 241.262 259.166 242.782V247.422H261.166V242.526C261.166 239.95 259.646 238.782 257.598 238.782ZM267.701 247.534C269.365 247.534 270.693 246.814 271.349 245.534L269.813 244.638C269.301 245.454 268.533 245.822 267.685 245.822C266.213 245.822 265.093 244.814 265.093 243.15C265.093 241.502 266.213 240.478 267.685 240.478C268.533 240.478 269.301 240.846 269.813 241.662L271.349 240.766C270.693 239.47 269.365 238.782 267.701 238.782C264.997 238.782 263.077 240.59 263.077 243.15C263.077 245.71 264.997 247.534 267.701 247.534ZM280.985 243.198C280.985 240.526 279.161 238.782 276.665 238.782C274.121 238.782 272.249 240.606 272.249 243.15C272.249 245.694 274.105 247.534 276.969 247.534C278.441 247.534 279.641 247.054 280.409 246.142L279.337 244.91C278.729 245.534 277.977 245.838 277.017 245.838C275.529 245.838 274.489 245.038 274.249 243.79H280.953C280.969 243.598 280.985 243.358 280.985 243.198ZM276.665 240.382C277.977 240.382 278.921 241.23 279.081 242.462H274.233C274.425 241.214 275.369 240.382 276.665 240.382ZM285.546 247.534C287.946 247.534 289.418 246.494 289.418 244.894C289.418 241.55 284.138 243.086 284.138 241.358C284.138 240.798 284.714 240.398 285.93 240.398C286.746 240.398 287.562 240.558 288.378 241.038L289.146 239.518C288.378 239.054 287.082 238.782 285.946 238.782C283.642 238.782 282.186 239.838 282.186 241.454C282.186 244.862 287.466 243.326 287.466 244.958C287.466 245.55 286.938 245.902 285.674 245.902C284.602 245.902 283.45 245.55 282.698 245.054L281.93 246.574C282.698 247.118 284.122 247.534 285.546 247.534ZM290.852 240.654H292.308L292.452 236.222H290.724L290.852 240.654ZM293.94 240.654H295.396L295.54 236.222H293.812L293.94 240.654Z" fill="#1D2128"/>
<circle cx="23.5" cy="16.5" r="7.5" fill="#52B392"/>
<path d="M23.4997 13.4219L23.5 243.844" stroke="#52B392" stroke-dasharray="2 2"/>
<circle cx="23.5" cy="165.422" r="23" fill="#52B392"/>
<path d="M15.5 156.533L23.5 155.422L31.5 156.533V165.682C31.5 168.303 30.216 170.758 28.0632 172.253L23.5 175.422L18.9368 172.253C16.784 170.758 15.5 168.303 15.5 165.682V156.533Z" stroke="white" stroke-width="1.75" stroke-linecap="round" stroke-linejoin="round"/>
<path d="M27.5 162.422L22.65 167.422L20.5 165.212" stroke="white" stroke-width="1.75" stroke-miterlimit="10" stroke-linecap="round" stroke-linejoin="round"/>
<circle cx="23.5" cy="89.4219" r="23" fill="#52B392"/>
<path d="M23.5 89.4219C17.98 89.4219 13.5 93.9019 13.5 99.4219C13.52 99.4219 33.5 99.4219 33.5 99.4219C33.5 93.9019 29.02 89.4219 23.5 89.4219Z" stroke="white" stroke-width="1.75" stroke-miterlimit="10" stroke-linecap="round" stroke-linejoin="round"/>
<path d="M23.5 89.4219C26.2614 89.4219 28.5 87.1833 28.5 84.4219C28.5 81.6605 26.2614 79.4219 23.5 79.4219C20.7386 79.4219 18.5 81.6605 18.5 84.4219C18.5 87.1833 20.7386 89.4219 23.5 89.4219Z" stroke="white" stroke-width="1.75" stroke-miterlimit="10" stroke-linecap="round" stroke-linejoin="round"/>
<circle cx="23.5" cy="241.422" r="23" fill="#52B392"/>
<path d="M33.5 248.422H13.5" stroke="white" stroke-width="1.75" stroke-miterlimit="10" stroke-linecap="round" stroke-linejoin="round"/>
<path d="M13.5 241.422H33.5" stroke="white" stroke-width="1.75" stroke-miterlimit="10" stroke-linecap="round" stroke-linejoin="round"/>
<path d="M13.5 234.422H33.5" stroke="white" stroke-width="1.75" stroke-miterlimit="10" stroke-linecap="round" stroke-linejoin="round"/>
</svg>
