<svg width="31" height="31" viewBox="0 0 31 31" fill="none" xmlns="http://www.w3.org/2000/svg">
<g clip-path="url(#clip0)">
<path d="M28.5943 30.9293C29.5086 30.9293 30.25 30.188 30.25 29.2736V2.58494C30.25 1.67041 29.5086 0.929199 28.5943 0.929199H1.90574C0.991094 0.929199 0.25 1.67041 0.25 2.58494V29.2736C0.25 30.188 0.991094 30.9293 1.90574 30.9293H28.5943Z" fill="#395185"/>
<path d="M20.9494 30.9293V19.3116H24.8491L25.4329 14.7841H20.9494V11.8933C20.9494 10.5825 21.3135 9.68915 23.1933 9.68915L25.5909 9.68809V5.63868C25.176 5.58349 23.7529 5.46021 22.0973 5.46021C18.6405 5.46021 16.274 7.57017 16.274 11.4451V14.7841H12.3644V19.3116H16.274V30.9293H20.9494Z" fill="white"/>
</g>
<defs>
<clipPath id="clip0">
<rect width="30" height="30" fill="white" transform="translate(0.25 0.929199)"/>
</clipPath>
</defs>
</svg>
