<svg width="142" height="58" viewBox="0 0 142 58" fill="none" xmlns="http://www.w3.org/2000/svg">
<path fill-rule="evenodd" clip-rule="evenodd" d="M141.035 24.0608C141.035 24.205 140.994 24.3464 140.916 24.468L134.142 39.399C133.852 40.138 133.852 40.9591 134.142 41.6981L141.131 56.8475C141.209 56.9681 141.25 57.1084 141.25 57.2517C141.25 57.395 141.209 57.5352 141.131 57.6558C141.053 57.7764 140.942 57.8722 140.811 57.9319C140.681 57.9916 140.535 58.0127 140.393 57.9926H59.7713C59.4355 57.9926 59.1135 57.8597 58.876 57.6232C58.6385 57.3868 58.5051 57.066 58.5051 56.7316V24.5794C58.5051 24.245 58.6385 23.9243 58.876 23.6878C59.1135 23.4513 59.4355 23.3185 59.7713 23.3185H140.169C140.313 23.2976 140.459 23.3182 140.591 23.3777C140.723 23.4373 140.835 23.5333 140.913 23.6544C140.992 23.7755 141.034 23.9165 141.035 24.0608ZM109.331 35.9332C109.4 35.9763 109.454 36.04 109.485 36.1152L109.811 36.8637C110.585 36.0305 111.981 35.527 113.592 35.527C115.319 35.527 116.644 36.2221 117.172 37.4207C117.676 36.8111 118.313 36.3239 119.035 35.9958C119.757 35.6677 120.544 35.5074 121.337 35.527C124.563 35.527 126.465 37.492 126.465 40.7981V48.7158C126.47 48.7609 126.464 48.8065 126.449 48.8493C126.434 48.8921 126.409 48.931 126.377 48.9631C126.345 48.9951 126.306 49.0196 126.263 49.0346C126.22 49.0497 126.174 49.0549 126.129 49.05H121.843C121.797 49.0549 121.752 49.0497 121.709 49.0346C121.666 49.0196 121.627 48.9951 121.594 48.9631C121.562 48.931 121.538 48.8921 121.523 48.8493C121.507 48.8065 121.502 48.7609 121.507 48.7158V41.5244C121.458 40.5664 121.046 40.0139 120.326 40.0139C119.946 40.0071 119.576 40.1395 119.288 40.3859C118.999 40.6322 118.811 40.9755 118.76 41.3506V48.7158C118.765 48.7609 118.76 48.8065 118.744 48.8493C118.729 48.8921 118.705 48.931 118.673 48.9631C118.64 48.9951 118.601 49.0196 118.558 49.0346C118.515 49.0497 118.47 49.0549 118.424 49.05H114.138C114.093 49.0549 114.047 49.0497 114.004 49.0346C113.961 49.0196 113.922 48.9951 113.89 48.9631C113.858 48.931 113.833 48.8921 113.818 48.8493C113.803 48.8065 113.797 48.7609 113.802 48.7158V41.5244C113.802 40.4951 113.342 40.0139 112.621 40.0139C112.241 40.0147 111.873 40.1493 111.582 40.3938C111.292 40.6384 111.097 40.9772 111.033 41.3506V48.7203C111.038 48.7654 111.033 48.811 111.017 48.8538C111.002 48.8966 110.978 48.9354 110.946 48.9675C110.913 48.9996 110.874 49.0241 110.831 49.0391C110.788 49.0541 110.743 49.0594 110.697 49.0545H106.415C106.37 49.0594 106.324 49.0541 106.281 49.0391C106.238 49.0241 106.199 48.9996 106.167 48.9675C106.135 48.9354 106.11 48.8966 106.095 48.8538C106.08 48.811 106.075 48.7654 106.08 48.7203V36.2087C106.075 36.1636 106.08 36.118 106.095 36.0752C106.11 36.0324 106.135 35.9936 106.167 35.9615C106.199 35.9294 106.238 35.905 106.281 35.8899C106.324 35.8749 106.37 35.8696 106.415 35.8746H109.1C109.181 35.8695 109.262 35.89 109.331 35.9332ZM97.8048 45.7161C98.0362 45.6124 98.2429 45.4609 98.411 45.2716V44.7503C98.2429 44.561 98.0362 44.4094 97.8048 44.3057C97.5734 44.202 97.3225 44.1485 97.0687 44.1488C96.9364 44.1143 96.7978 44.1105 96.6638 44.1377C96.5298 44.1649 96.4038 44.2224 96.2955 44.3056C96.1872 44.3889 96.0996 44.4957 96.0393 44.618C95.9789 44.7403 95.9476 44.8747 95.9476 45.0109C95.9476 45.1472 95.9789 45.2816 96.0393 45.4038C96.0996 45.5261 96.1872 45.633 96.2955 45.7162C96.4038 45.7995 96.5298 45.8569 96.6638 45.8841C96.7978 45.9113 96.9364 45.9075 97.0687 45.8731C97.3225 45.8733 97.5734 45.8198 97.8048 45.7161ZM93.6728 40.4283C93.552 40.4995 93.4043 40.406 93.3103 40.2367L91.9412 37.3405C91.9085 37.2634 91.9026 37.1777 91.9245 37.0969C91.9464 37.0162 91.9948 36.9451 92.062 36.8949C93.6456 35.9755 95.4506 35.5026 97.2835 35.527C101.449 35.527 103.373 37.7058 103.373 42.4779V48.6802C103.371 48.7752 103.332 48.8657 103.264 48.9329C103.197 49.0001 103.106 49.0388 103.011 49.0411H99.977C99.8793 49.0392 99.7858 49.0012 99.7147 48.9345C99.6436 48.8678 99.5999 48.7772 99.5922 48.6802L99.4222 48.0341C98.6302 48.8762 97.0419 49.402 95.2835 49.402C92.5005 49.402 90.6884 47.6286 90.7108 44.9909C90.7332 42.6427 92.5631 41.0832 95.2835 41.0832C96.6839 41.0832 97.9322 41.5867 98.4155 42.3531V41.364C98.4155 40.3347 97.6683 39.6619 96.5631 39.6619C95.5519 39.6829 94.5606 39.9458 93.6728 40.4283ZM80.6996 40.6111C80.6132 40.8307 80.5744 41.066 80.5856 41.3016H83.986C83.986 40.2456 83.3372 39.5505 82.3753 39.5505C82.1389 39.5352 81.902 39.5697 81.68 39.6519C81.458 39.734 81.2559 39.8619 81.087 40.0272C80.918 40.1925 80.786 40.3915 80.6996 40.6111ZM86.6295 44.6204C86.6527 44.6523 86.6683 44.6891 86.675 44.728L87.6996 47.7088C87.7488 47.8782 87.6996 47.9762 87.5296 48.0698C86.0279 48.9705 84.3026 49.4336 82.5498 49.4065C78.2903 49.4065 75.4491 46.6484 75.4491 42.4779C75.4491 38.3074 78.2411 35.527 82.429 35.527C86.4245 35.527 88.7824 38.0935 88.7824 42.4556C88.7869 42.8172 88.7554 43.1784 88.6884 43.5339C88.6853 43.577 88.6731 43.619 88.6528 43.6572C88.6324 43.6955 88.6043 43.7291 88.5702 43.7559C88.5362 43.7827 88.4969 43.8022 88.4548 43.813C88.4128 43.8239 88.3689 43.8259 88.326 43.819H80.6079C80.6079 43.819 80.6079 45.3295 82.6303 45.3295C83.8998 45.3234 85.154 45.0533 86.3126 44.5364C86.3487 44.5202 86.3881 44.5124 86.4277 44.5137C86.4672 44.5149 86.506 44.5252 86.541 44.5437C86.576 44.5622 86.6062 44.5884 86.6295 44.6204ZM72.0845 32.8402V35.8612L73.8876 35.8567C73.9339 35.853 73.9804 35.8589 74.0243 35.8741C74.0681 35.8892 74.1084 35.9132 74.1424 35.9446C74.1765 35.976 74.2037 36.0141 74.2222 36.0565C74.2407 36.0989 74.2502 36.1447 74.25 36.1909L73.986 38.5168C73.9798 38.6104 73.9395 38.6986 73.8729 38.765C73.8062 38.8314 73.7177 38.8714 73.6236 38.8777H72.0845V48.6802C72.0822 48.7752 72.0433 48.8657 71.9758 48.9329C71.9083 49.0001 71.8175 49.0388 71.7221 49.0411H67.485C67.3896 49.0388 67.2987 49.0001 67.2312 48.9329C67.1637 48.8657 67.1248 48.7752 67.1225 48.6802V38.8777H65.7489C65.6607 38.8754 65.5766 38.8395 65.5142 38.7773C65.4517 38.7151 65.4156 38.6314 65.4134 38.5435V36.2176C65.4116 36.172 65.4188 36.1264 65.4347 36.0836C65.4506 36.0407 65.4749 36.0014 65.506 35.9679C65.5372 35.9344 65.5747 35.9073 65.6164 35.8882C65.6581 35.8692 65.7031 35.8585 65.7489 35.8567H67.1225V33.2457C67.134 33.1565 67.1765 33.0742 67.2428 33.0131C67.3091 32.952 67.3948 32.916 67.485 32.9115L71.7221 32.5061C71.7679 32.5043 71.8137 32.5115 71.8567 32.5273C71.8997 32.5432 71.9392 32.5673 71.9728 32.5983C72.0065 32.6294 72.0337 32.6667 72.0529 32.7082C72.072 32.7497 72.0828 32.7946 72.0845 32.8402Z" fill="#EB2B4E"/>
<path d="M10.6351 13.2086C7.50315 7.86179 11.0333 9.30098 11.0333 9.30098C11.0736 8.90442 11.0736 8.50341 11.0736 8.50341V7.27364C11.1407 6.43597 10.1251 6.28448 10.1251 6.28448C8.47535 6.02404 6.80645 5.9033 5.13626 5.92357C1.73583 5.88793 -1.57511 7.75931 1.55686 13.0883C4.68884 18.4173 0.313022 16.9157 0.313022 16.9157C0.275217 17.1785 0.254295 17.4434 0.250382 17.7088V18.9475C0.228011 19.8387 1.19445 19.9501 1.19445 19.9501C3.13682 20.2185 5.09478 20.3599 7.05572 20.3733C10.4562 20.409 13.7671 18.5376 10.6351 13.2086Z" fill="#EB2B4E"/>
<path d="M69.8071 6.56976C69.8063 6.45591 69.7695 6.34521 69.7021 6.25328C69.6347 6.16134 69.5399 6.09281 69.4313 6.05736C69.0655 5.97081 68.6828 5.98704 68.3258 6.10425C67.9687 6.22147 67.6513 6.43506 67.4089 6.72125C67.3358 6.48258 67.1836 6.27561 66.9772 6.13403C66.7709 5.99245 66.5225 5.92459 66.2725 5.94151H59.7311C59.5654 5.93067 59.3992 5.95558 59.2441 6.01454C59.0889 6.07349 58.9483 6.16511 58.8319 6.28312C58.7155 6.40114 58.6261 6.54277 58.5697 6.69836C58.5133 6.85394 58.4913 7.01981 58.5052 7.18464V19.215C58.4897 19.3801 58.5107 19.5467 58.5665 19.703C58.6223 19.8592 58.7117 20.0015 58.8284 20.1199C58.9452 20.2382 59.0864 20.3298 59.2423 20.3882C59.3982 20.4466 59.565 20.4705 59.7311 20.4581H66.268C66.4341 20.4705 66.6009 20.4466 66.7568 20.3882C66.9127 20.3298 67.054 20.2382 67.1707 20.1199C67.2874 20.0015 67.3768 19.8592 67.4326 19.703C67.4884 19.5467 67.5094 19.3801 67.4939 19.215V9.53724C67.7354 9.2787 68.0422 9.0894 68.3821 8.98909C68.7221 8.88878 69.0829 8.88112 69.4268 8.96691C69.8027 9.07831 69.8027 8.68175 69.8027 8.68175C69.8027 8.08023 69.8027 8.08024 69.8027 6.56976" fill="#EB2B4E"/>
<path d="M81.4044 5.94177H80.8943V1.4861C80.8943 1.4861 80.8943 1.04053 80.5006 1.04053H78.5677C78.4502 1.04405 78.3374 1.08684 78.2473 1.16201C78.1572 1.23717 78.0951 1.34034 78.0711 1.45491C78.0711 1.45491 77.2075 4.97489 72.6706 5.93732H71.0107C70.9544 5.93752 70.8987 5.94962 70.8474 5.97282C70.7961 5.99601 70.7504 6.02978 70.7132 6.0719C70.6759 6.11401 70.6481 6.1635 70.6315 6.21711C70.615 6.27072 70.61 6.32722 70.6169 6.38288V8.45477C70.6169 8.45477 70.6169 8.90034 71.0107 8.90034H71.9055V19.2464C71.8935 19.4098 71.917 19.5739 71.9744 19.7274C72.0317 19.881 72.1216 20.0204 72.238 20.1362C72.3543 20.2521 72.4943 20.3416 72.6485 20.3987C72.8027 20.4559 72.9674 20.4792 73.1315 20.4673H79.6907C79.8534 20.4735 80.0156 20.4463 80.1672 20.3871C80.3188 20.328 80.4565 20.2383 80.5716 20.1236C80.6867 20.009 80.7768 19.8719 80.8362 19.7209C80.8956 19.57 80.923 19.4084 80.9167 19.2464V8.87361H81.4223C81.4786 8.87341 81.5342 8.86131 81.5855 8.83811C81.6368 8.81491 81.6826 8.78114 81.7198 8.73903C81.757 8.69692 81.7848 8.64743 81.8014 8.59382C81.818 8.54021 81.823 8.48371 81.816 8.42804V6.35615C81.816 6.35615 81.816 5.91058 81.4223 5.91058" fill="#EB2B4E"/>
<path d="M24.1249 13.2532C24.1232 14.7221 23.8186 16.1749 23.2301 17.5217C23.1718 17.6418 23.079 17.7419 22.9635 17.8093C22.848 17.8767 22.715 17.9085 22.5813 17.9005H21.861V8.61039H22.5813C22.715 8.60239 22.848 8.63413 22.9635 8.70156C23.079 8.76899 23.1718 8.86908 23.2301 8.98913C23.82 10.3238 24.132 11.7638 24.1473 13.222L24.1249 13.2532ZM25.1048 6.0261C24.0086 6.02553 22.9205 6.21241 21.8878 6.5786C21.7948 6.36464 21.6346 6.18646 21.4314 6.07078C21.2281 5.95511 20.9926 5.90816 20.7603 5.93698H14.2234C14.0587 5.92038 13.8923 5.94039 13.7363 5.99559C13.5803 6.05078 13.4385 6.13977 13.3213 6.25614C13.204 6.37251 13.1141 6.51336 13.0581 6.66852C13.0021 6.82368 12.9814 6.98929 12.9975 7.15339V22.0888C12.9855 22.2522 13.0089 22.4163 13.0663 22.5698C13.1237 22.7233 13.2136 22.8628 13.3299 22.9786C13.4462 23.0945 13.5862 23.184 13.7404 23.2411C13.8946 23.2982 14.0593 23.3216 14.2234 23.3097H20.7603C20.9238 23.3194 21.0876 23.2945 21.2408 23.2366C21.3939 23.1787 21.533 23.0891 21.6489 22.9737C21.7647 22.8584 21.8547 22.7198 21.9129 22.5673C21.971 22.4148 21.996 22.2517 21.9862 22.0888V20.3689C22.8811 20.4046 24.2234 20.4447 25.1182 20.4447C27.0394 20.4447 28.8819 19.6847 30.2404 18.3318C31.5989 16.979 32.362 15.1441 32.362 13.2309C32.362 11.3177 31.5989 9.48288 30.2404 8.13004C28.8819 6.7772 27.0394 6.01719 25.1182 6.01719" fill="#EB2B4E"/>
<path d="M90.6705 17.4548H90.1425C90.0553 17.4605 89.9678 17.4475 89.886 17.4168C89.8042 17.386 89.73 17.3382 89.6683 17.2765C89.2506 16.6788 89.0174 15.9727 88.9971 15.2447C89.0221 14.5232 89.2551 13.824 89.6683 13.2308C89.73 13.1691 89.8042 13.1213 89.886 13.0906C89.9678 13.0598 90.0553 13.0469 90.1425 13.0526H90.6705V17.4548ZM99.7488 8.8464C99.7488 8.8464 99.4266 4.32388 85.4312 6.39577C85.3247 6.41415 85.2279 6.4685 85.157 6.54966C85.0861 6.63081 85.0455 6.73383 85.0419 6.84134V8.50776C85.0419 8.50776 85.0419 8.89986 85.4177 8.77956C85.4177 8.77956 88.8629 7.67009 90.7868 9.04244V10.3435H87.4267C84.0889 10.3435 81.382 12.6025 81.382 15.3873C81.382 18.1721 84.0665 20.4312 87.4267 20.4312H91.0598C91.0999 20.4363 91.1405 20.4363 91.1806 20.4312H98.5497C98.711 20.4323 98.8709 20.4016 99.0202 20.3406C99.1695 20.2797 99.3051 20.1898 99.4192 20.0762C99.5333 19.9626 99.6235 19.8276 99.6847 19.6789C99.7459 19.5302 99.7768 19.371 99.7756 19.2103V8.93551C99.7792 8.89995 99.7792 8.86413 99.7756 8.82857" fill="#EB2B4E"/>
<path d="M45.2391 25.7023C47.6921 25.7023 50.09 24.9779 52.1296 23.6207C54.1692 22.2636 55.7589 20.3346 56.6976 18.0777C57.6363 15.8208 57.8819 13.3374 57.4034 10.9416C56.9248 8.54567 55.7436 6.34491 54.009 4.61757C52.2745 2.89023 50.0646 1.7139 47.6587 1.23733C45.2528 0.760758 42.7591 1.00535 40.4928 1.94018C38.2265 2.87501 36.2895 4.45808 34.9266 6.48922C33.5638 8.52035 32.8364 10.9083 32.8364 13.3511C32.8364 14.9731 33.1572 16.5792 33.7805 18.0777C34.4038 19.5762 35.3174 20.9378 36.4691 22.0847C37.6208 23.2316 38.988 24.1414 40.4928 24.7621C41.9975 25.3828 43.6103 25.7023 45.2391 25.7023Z" stroke="#EB2B4E" stroke-width="1.55" stroke-miterlimit="10"/>
</svg>
