<svg width="43" height="43" viewBox="0 0 43 43" fill="none" xmlns="http://www.w3.org/2000/svg">
<path d="M41.375 31.6501C41.375 26.1301 36.895 21.6501 31.375 21.6501C25.855 21.6501 21.375 26.1301 21.375 31.6501C21.375 32.3301 21.435 33.0101 21.575 33.6501H1.375V5.65015V1.65015H17.375L21.375 7.65015H41.375V13.6501V31.6501Z" stroke="#818181" stroke-width="1.75" stroke-miterlimit="10" stroke-linecap="round" stroke-linejoin="round"/>
<path d="M31.375 41.6501C36.8978 41.6501 41.375 37.1729 41.375 31.6501C41.375 26.1273 36.8978 21.6501 31.375 21.6501C25.8522 21.6501 21.375 26.1273 21.375 31.6501C21.375 37.1729 25.8522 41.6501 31.375 41.6501Z" stroke="#818181" stroke-width="1.75" stroke-miterlimit="10" stroke-linecap="round" stroke-linejoin="round"/>
<path d="M27.1328 27.4102L35.6128 35.8902" stroke="#818181" stroke-width="1.75" stroke-miterlimit="10" stroke-linejoin="round"/>
<path d="M35.6128 27.4102L27.1328 35.8902" stroke="#818181" stroke-width="1.75" stroke-miterlimit="10" stroke-linejoin="round"/>
</svg>
