<svg width="93" height="76" viewBox="0 0 93 76" fill="none" xmlns="http://www.w3.org/2000/svg">
<path d="M32.0659 56.1816C32.0659 60.1273 31.8467 63.3059 31.4083 65.7171C30.9698 67.9092 29.545 70.1013 27.1337 72.2934C24.7224 74.2662 21.2151 75.2527 16.6118 75.2527C9.81632 75.2527 5.43217 73.6086 3.4593 70.3205C1.48643 66.8132 0.5 62.1002 0.5 56.1816C0.5 50.0438 1.59604 43.906 3.78811 37.7682C6.19939 31.6304 8.93949 26.479 12.0084 22.314C15.2965 17.9299 18.475 13.9842 21.5439 10.4768C24.832 6.96953 27.6817 4.33905 30.093 2.58538L33.3811 0.283691L41.2726 9.1616C36.8885 12.8881 33.6003 16.6147 31.4083 20.3412C29.4354 23.8485 28.449 28.7807 28.449 35.1377C28.449 37.1106 28.997 40.3987 30.093 45.002C31.4083 49.6054 32.0659 53.3319 32.0659 56.1816ZM83.6892 56.1816C83.6892 60.1273 83.4701 63.3059 83.0316 65.7171C82.5932 67.9092 81.1684 70.1013 78.7571 72.2934C76.3458 74.2662 72.8385 75.2527 68.2351 75.2527C61.4397 75.2527 57.0555 73.6086 55.0827 70.3205C53.1098 66.8132 52.1234 62.1002 52.1234 56.1816C52.1234 50.0438 53.2194 43.906 55.4115 37.7682C57.8228 31.6304 60.5629 26.479 63.6318 22.314C66.9199 17.9299 70.0984 13.9842 73.1673 10.4768C76.4554 6.96953 79.1955 4.33905 81.3876 2.58538L85.0045 0.283691L92.5672 9.1616C89.7175 11.7921 87.5254 13.9842 85.9909 15.7378C84.6757 17.4915 83.3604 20.122 82.0452 23.6293C80.73 26.9174 80.0723 30.7535 80.0723 35.1377C80.0723 37.1106 80.6204 40.3987 81.7164 45.002C83.0316 49.6054 83.6892 53.3319 83.6892 56.1816Z" fill="#F7F8FA"/>
</svg>
