<svg width="108" height="86" viewBox="0 0 108 86" fill="none" xmlns="http://www.w3.org/2000/svg">
<path opacity="0.3" d="M35.7441 40.6895L46.7441 0.939442H21.9941L7.49414 36.9394C1.74414 50.6894 0.744141 55.4394 0.744141 61.9394C0.744141 76.1894 10.9941 85.9395 24.9941 85.9395C38.7441 85.9395 48.9941 76.4394 48.9941 61.9394C48.9941 51.6894 43.9941 44.1895 35.7441 40.6895ZM94.7441 40.6895L105.744 0.939442H80.9941L66.4941 36.9394C60.7441 50.6894 59.7441 55.4394 59.7441 61.9394C59.7441 76.1894 69.9941 85.9395 83.9941 85.9395C97.7441 85.9395 107.994 76.4394 107.994 61.9394C107.994 51.6894 102.994 44.1895 94.7441 40.6895Z" fill="#E1E1E1"/>
</svg>
