<svg width="47" height="47" viewBox="0 0 47 47" fill="none" xmlns="http://www.w3.org/2000/svg">
    <circle cx="23.5" cy="23.5779" r="23" fill="#CA2F4E"/>
    <path d="M30.7222 26.9133C31.6444 26.9133 32.3889 27.6575 32.3889 28.5794C32.3889 29.5014 31.6444 30.2457 30.7222 30.2457H27.9444H30.1667C31.0889 30.2457 31.8333 30.9898 31.8333 31.9118C31.8333 32.8337 31.0889 33.5779 30.1667 33.5779H29.0556H20.1667C16.4889 33.5779 13.5 30.5789 13.5 26.8911C13.5 23.8921 15.4667 21.3484 18.1889 20.5042C19.5556 20.0711 20.5778 18.9159 21.0222 17.5385L22.0444 14.3951C22.2222 13.6731 22.9556 13.4843 23.6889 13.6175C24.8556 13.8175 25.8444 15.317 25.8444 18.0273L25.7222 20.2488H31.8333C32.7556 20.2488 33.5 20.993 33.5 21.9149C33.5 22.8369 32.7556 23.5811 31.8333 23.5811H29.0556H31.2778C32.2 23.5811 32.9444 24.3252 32.9444 25.2472C32.9444 26.1691 32.2 26.9133 31.2778 26.9133H28.5" stroke="white" stroke-width="1.75" stroke-miterlimit="10" stroke-linecap="round" stroke-linejoin="round"/>
</svg>
