<svg width="47" height="47" viewBox="0 0 47 47" fill="none" xmlns="http://www.w3.org/2000/svg">
    <circle cx="23.5" cy="23.5779" r="23" fill="#52B392"/>
    <path d="M23.5971 13.5783C23.5971 13.5783 22.132 16.8555 22.2199 19.0617C22.293 20.8934 23.5 23.5779 23.5 23.5779C23.5 23.5779 22.0099 26.4103 20.4814 27.6858C18.9197 28.9889 15.7879 29.9436 15.7879 29.9436C13.4132 27.0626 12.756 22.962 14.4391 19.3527C16.1489 15.6861 19.7993 13.5437 23.5971 13.5783Z" stroke="white" stroke-width="1.75" stroke-linecap="round" stroke-linejoin="round"/>
    <path d="M23.5001 23.5779C23.5001 23.5779 22.2931 20.8934 22.22 19.0616C22.132 16.8555 23.5972 13.5782 23.5972 13.5782C24.9826 13.5909 26.3877 13.8931 27.7253 14.5169C32.7295 16.8504 34.8946 22.7988 32.5611 27.803C32.5611 27.803 30.7812 24.7668 28.8756 23.8782C26.9701 22.9896 23.5001 23.5779 23.5001 23.5779Z" stroke="white" stroke-width="1.75" stroke-linecap="round" stroke-linejoin="round"/>
    <path d="M15.7881 29.9436C15.7881 29.9436 18.9199 28.9889 20.4816 27.6858C22.0101 26.4103 23.5003 23.5779 23.5003 23.5779C23.5003 23.5779 26.9702 22.9896 28.8758 23.8782C30.7813 24.7668 32.5612 27.803 32.5612 27.803C30.2277 32.8072 24.2793 34.9723 19.2751 32.6388C17.8802 31.9883 16.7058 31.057 15.7881 29.9436Z" stroke="white" stroke-width="1.75" stroke-linecap="round" stroke-linejoin="round"/>
    <path d="M22.22 19.0617C22.1321 16.8555 23.5971 13.5783 23.5971 13.5783C21.6204 13.5603 19.6836 14.1321 18.0396 15.2016L18.0475 15.2045C17.1819 17.5631 16.7754 19.4601 16.9767 22.1905C17.1798 24.9439 19.6059 28.2765 19.6059 28.2765L19.612 28.2932C19.93 28.1018 20.2266 27.8985 20.4814 27.6858C22.01 26.4103 23.5001 23.5779 23.5001 23.5779C23.5001 23.5779 22.2931 20.8934 22.22 19.0617Z" stroke="white" stroke-width="1.75" stroke-linecap="round" stroke-linejoin="round"/>
    <path d="M22.3501 17.5685C22.3501 17.5685 26.1962 17.0818 29.4984 18.5788C31.0862 19.2985 32.3326 20.2936 33.1837 21.1111L33.1875 21.1053C33.7403 23.2659 33.5771 25.624 32.561 27.8029C32.561 27.8029 30.7812 24.7668 28.8756 23.8782C26.9701 22.9896 23.5001 23.5778 23.5001 23.5778C23.5001 23.5778 22.2931 20.8933 22.22 19.0616C22.2015 18.5967 22.2519 18.0842 22.3431 17.5648L22.3501 17.5685Z" stroke="white" stroke-width="1.75" stroke-linecap="round" stroke-linejoin="round"/>
    <path d="M20.4816 27.6858C18.9199 28.9889 15.7881 29.9436 15.7881 29.9436C16.7058 31.057 17.8802 31.9883 19.2751 32.6388C19.6465 32.812 20.0231 32.9604 20.4031 33.0848C20.5119 33.05 20.6208 33.0152 20.7296 32.9803C21.3502 32.781 21.9684 32.5765 22.5728 32.3377C23.7819 31.8601 24.9377 31.2448 25.953 30.2568C26.9475 29.2892 27.9162 27.804 28.6352 26.564C28.9951 25.9434 29.2929 25.3831 29.5008 24.978C29.6048 24.7753 29.6863 24.6116 29.7419 24.4983L29.7684 24.4441C29.4783 24.215 29.1787 24.0195 28.8758 23.8782C26.9702 22.9896 23.5003 23.5779 23.5003 23.5779C23.5003 23.5779 22.0101 26.4103 20.4816 27.6858Z" stroke="white" stroke-width="1.75" stroke-linecap="round" stroke-linejoin="round"/>
</svg>
