<svg width="46" height="47" viewBox="0 0 46 47" fill="none" xmlns="http://www.w3.org/2000/svg">
    <circle cx="23" cy="23.3093" r="23" fill="#52B392"/>
    <path d="M21.7539 24.3624C20.0864 23.3302 18.9654 21.4887 18.9302 19.3789C18.8748 16.0694 21.5194 13.3348 24.829 13.2794C28.1385 13.2241 30.8731 15.8687 30.9285 19.1782C30.9532 20.658 30.4459 22.0167 29.5734 23.0714C29.1423 23.0086 28.7024 23.016 28.2538 23.1035L21.7539 24.3624Z" stroke="white" stroke-width="1.75" stroke-miterlimit="10" stroke-linecap="round" stroke-linejoin="round"/>
    <path d="M23.7583 23.9789L26.3828 13.4635" stroke="white" stroke-width="1.75" stroke-miterlimit="10" stroke-linecap="round" stroke-linejoin="round"/>
    <path d="M13.1706 30.137C12.7439 27.9438 14.1787 25.8295 16.3619 25.4029L28.2551 23.1037C30.4483 22.677 32.5626 24.1118 32.9891 26.295C33.4159 28.4881 31.981 30.6024 29.7979 31.029L17.9047 33.3282C15.7117 33.765 13.5974 32.3302 13.1706 30.137Z" stroke="white" stroke-width="1.75" stroke-miterlimit="10" stroke-linecap="round" stroke-linejoin="round"/>
    <path d="M22.315 24.263L23.8478 32.1885" stroke="white" stroke-width="1.75" stroke-miterlimit="10" stroke-linecap="square" stroke-linejoin="round"/>
    <line x1="34.8446" y1="37.6461" x2="9.86167" y2="10.1494" stroke="white" stroke-width="1.75"/>
</svg>
