<svg width="46" height="47" viewBox="0 0 46 47" fill="none" xmlns="http://www.w3.org/2000/svg">
    <circle cx="23" cy="23.3093" r="23" fill="#CA2F4E"/>
    <path d="M32 33.3093H14C13.45 33.3093 13 32.8593 13 32.3093V14.3093C13 13.7593 13.45 13.3093 14 13.3093H32C32.55 13.3093 33 13.7593 33 14.3093V32.3093C33 32.8593 32.55 33.3093 32 33.3093Z" stroke="white" stroke-width="1.75" stroke-miterlimit="10"/>
    <path d="M29.5 21.3093H25V16.8093C25 16.5293 24.78 16.3093 24.5 16.3093H21.5C21.22 16.3093 21 16.5293 21 16.8093V21.3093H16.5C16.22 21.3093 16 21.5293 16 21.8093V24.8093C16 25.0893 16.22 25.3093 16.5 25.3093H21V29.8093C21 30.0893 21.22 30.3093 21.5 30.3093H24.5C24.78 30.3093 25 30.0893 25 29.8093V25.3093H29.5C29.78 25.3093 30 25.0893 30 24.8093V21.8093C30 21.5293 29.78 21.3093 29.5 21.3093Z" stroke="white" stroke-width="1.75" stroke-miterlimit="10"/>
</svg>
