<svg height="100" width="100">
    <circle class="circle" cx="50" cy="50" r="50" stroke-width="1" fill="#86bc25" fill-opacity="0.4"/>
    <circle class="circle" cx="50" cy="50" r="35" stroke-width="1" fill="black"/>
    <circle class="circle" cx="50" cy="50" r="34" stroke-width="2" fill="#86bc25"/>
    <path d="M21.2002 18.2846C21.2402 17.9946 21.3602 17.4546 21.7602 16.9746C21.8702 16.8446 22.0602 16.6146 22.3902 16.4446C22.7802 16.2446 23.1402 16.2446 23.3002 16.2446C23.4902 16.2446 23.9102 16.2646 24.3502 16.5546C24.8902 16.9146 25.0602 17.4346 25.1102 17.5946C25.1402 17.6746 25.2902 18.2046 25.1102 18.8146C25.0002 19.1946 24.8002 19.4346 24.6202 19.6346C23.9202 20.4646 23.3102 20.3946 23.2002 20.9346C23.1902 20.9746 23.2002 21.2746 23.2002 21.8646C23.2002 22.0246 23.2002 22.1546 23.2002 22.2446" stroke="white" stroke-width="1.75" stroke-miterlimit="10" stroke-linecap="round" stroke-linejoin="round"/>
</svg>
