<svg width="47" height="47" viewBox="0 0 47 47" fill="none" xmlns="http://www.w3.org/2000/svg">
    <circle cx="23.5" cy="23.0337" r="23" fill="#52B392"/>
    <path d="M30.7222 21.6982C31.6444 21.6982 32.3889 20.954 32.3889 20.0321C32.3889 19.1101 31.6444 18.3659 30.7222 18.3659H27.9444H30.1667C31.0889 18.3659 31.8333 17.6218 31.8333 16.6998C31.8333 15.7779 31.0889 15.0337 30.1667 15.0337H29.0556H20.1667C16.4889 15.0337 13.5 18.0327 13.5 21.7205C13.5 24.7195 15.4667 27.2631 18.1889 28.1073C19.5556 28.5405 20.5778 29.6957 21.0222 31.073L22.0444 34.2165C22.2222 34.9385 22.9556 35.1273 23.6889 34.994C24.8556 34.7941 25.8444 33.2946 25.8444 30.5843L25.7222 28.3628H31.8333C32.7556 28.3628 33.5 27.6186 33.5 26.6967C33.5 25.7747 32.7556 25.0305 31.8333 25.0305H29.0556H31.2778C32.2 25.0305 32.9444 24.2864 32.9444 23.3644C32.9444 22.4425 32.2 21.6982 31.2778 21.6982H28.5" stroke="white" stroke-width="1.75" stroke-miterlimit="10" stroke-linecap="round" stroke-linejoin="round"/>
</svg>
