<svg width="47" height="47" viewBox="0 0 47 47" fill="none" xmlns="http://www.w3.org/2000/svg">
    <circle cx="23.5" cy="23.7448" r="23" fill="#52B392"/>
    <path d="M34.75 29.8161C34.75 32.6881 30.4725 33.7448 28.5 33.7448C26.5275 33.7448 24.75 31.7886 24.75 29.8161C24.75 27.8438 26.349 26.2448 28.3214 26.2448C30.2939 26.2448 34.75 26.9443 34.75 29.8161Z" stroke="white" stroke-width="1.75"/>
    <path d="M12.25 29.8161C12.25 32.6881 16.5275 33.7448 18.5 33.7448C20.4725 33.7448 22.25 31.7886 22.25 29.8161C22.25 27.8438 20.651 26.2448 18.6786 26.2448C16.7061 26.2448 12.25 26.9443 12.25 29.8161Z" stroke="white" stroke-width="1.75"/>
    <path d="M28.5 33.7448C30.5711 33.7448 32.25 32.0658 32.25 29.9948C32.25 27.9237 30.5711 26.2448 28.5 26.2448C26.4289 26.2448 24.75 27.9237 24.75 29.9948C24.75 32.0658 26.4289 33.7448 28.5 33.7448Z" stroke="white" stroke-width="1.75"/>
    <path d="M18.5 33.7448C16.4289 33.7448 14.75 32.0658 14.75 29.9948C14.75 27.9237 16.4289 26.2448 18.5 26.2448C20.5711 26.2448 22.25 27.9237 22.25 29.9948C22.25 32.0658 20.5711 33.7448 18.5 33.7448Z" stroke="white" stroke-width="1.75"/>
    <path d="M34.75 29.9948H36" stroke="white" stroke-width="1.75" stroke-linecap="round"/>
    <path d="M12.25 29.9948H11" stroke="white" stroke-width="1.75" stroke-linecap="round"/>
    <path d="M12.25 29.9948V27.687C12.25 21.3145 15.8294 13.7448 23.5 13.7448C31.1706 13.7448 34.75 21.3145 34.75 27.687V29.9948" stroke="white" stroke-width="1.75" stroke-linecap="round"/>
    <path d="M22.25 29.9948H24.75" stroke="white" stroke-width="1.75"/>
</svg>
