<svg width="47" height="47" viewBox="0 0 47 47" fill="none" xmlns="http://www.w3.org/2000/svg">
    <circle cx="23.5" cy="23.7448" r="23" fill="#F6D278"/>
    <path d="M33.4998 33.7448H13.4998C12.8887 33.7448 12.3887 33.2448 12.3887 32.6337V19.3003C12.3887 18.6892 12.8887 18.1892 13.4998 18.1892H33.4998C34.1109 18.1892 34.6109 18.6892 34.6109 19.3003V32.6337C34.6109 33.2448 34.1109 33.7448 33.4998 33.7448Z" stroke="white" stroke-width="1.75" stroke-linecap="round" stroke-linejoin="round"/>
    <path d="M28.5 18.1892H18.5V15.4114C18.5 14.4892 19.2444 13.7448 20.1667 13.7448H26.8333C27.7556 13.7448 28.5 14.4892 28.5 15.4114V18.1892Z" stroke="white" stroke-width="1.75" stroke-linecap="round" stroke-linejoin="round"/>
    <path d="M34.6109 24.6225C30.2553 25.6892 26.422 25.967 23.4998 25.967C19.022 25.967 15.2331 25.3225 12.3887 24.6225V19.3003C12.3887 18.6892 12.8887 18.1892 13.4998 18.1892H33.4998C34.1109 18.1892 34.6109 18.6892 34.6109 19.3003V24.6225Z" stroke="white" stroke-width="1.75" stroke-linecap="round" stroke-linejoin="round"/>
    <path d="M24.0554 21.5225H22.9443V22.6336H24.0554V21.5225Z" stroke="white" stroke-width="1.75" stroke-linecap="round"/>
</svg>
