<svg width="47" height="47" viewBox="0 0 47 47" fill="none" xmlns="http://www.w3.org/2000/svg">
    <circle cx="23.2002" cy="23.2446" r="23" fill="#52B392" />
    <path d="M30.4224 26.5801C31.3446 26.5801 32.0891 27.3243 32.0891 28.2462C32.0891 29.1682 31.3446 29.9124 30.4224 29.9124H27.6446H29.8669C30.7891 29.9124 31.5335 30.6565 31.5335 31.5785C31.5335 32.5004 30.7891 33.2446 29.8669 33.2446H28.7558H19.8669C16.1891 33.2446 13.2002 30.2456 13.2002 26.5579C13.2002 23.5589 15.1669 21.0152 17.8891 20.171C19.2558 19.7378 20.278 18.5826 20.7224 17.2053L21.7446 14.0618C21.9224 13.3398 22.6558 13.151 23.3891 13.2843C24.5558 13.4842 25.5446 14.9837 25.5446 17.694L25.4224 19.9155H31.5335C32.4558 19.9155 33.2002 20.6597 33.2002 21.5816C33.2002 22.5036 32.4558 23.2479 31.5335 23.2479H28.7558H30.978C31.9002 23.2479 32.6446 23.992 32.6446 24.914C32.6446 25.8359 31.9002 26.5801 30.978 26.5801H28.2002" stroke="white" stroke-width="1.75" stroke-miterlimit="10" stroke-linecap="round" stroke-linejoin="round"/>
</svg>
