<svg width="26" height="19" viewBox="0 0 26 19" fill="none" xmlns="http://www.w3.org/2000/svg">
    <path d="M11.2293 5.95158L8.10779 4.17273" stroke="#CA2F4E" stroke-width="1.75" stroke-miterlimit="10"/>
    <path d="M14.2769 11.442L17.0148 14.3535C17.4083 14.77 18.0464 14.77 18.4399 14.3535V14.3535C18.8335 13.937 18.8335 13.2617 18.4399 12.8452" stroke="#CA2F4E" stroke-width="1.75" stroke-miterlimit="10" stroke-linecap="round" stroke-linejoin="round"/>
    <path d="M14.2768 11.442L16.3022 13.5993C16.6957 14.0158 16.6957 14.6911 16.3022 15.1076L16.3022 15.1076C15.9087 15.5241 15.2706 15.5241 14.8771 15.1076L12.8517 12.9503" stroke="#CA2F4E" stroke-width="1.75" stroke-miterlimit="10" stroke-linecap="round" stroke-linejoin="round"/>
    <path d="M12.8518 12.9503L14.1646 14.3535C14.5581 14.77 14.5581 15.4453 14.1646 15.8618L14.1646 15.8618C13.7711 16.2783 13.133 16.2783 12.7395 15.8618L11.4266 14.4586" stroke="#CA2F4E" stroke-width="1.75" stroke-miterlimit="10" stroke-linecap="round" stroke-linejoin="round"/>
    <path d="M11.4266 14.4586L12.0268 15.1076C12.4204 15.5241 12.4204 16.1994 12.0268 16.6159L12.0268 16.6159C11.6333 17.0324 10.9952 17.0324 10.6017 16.6159L9.53284 15.4847L6.68262 12.4682L4.1886 8.32043" stroke="#CA2F4E" stroke-width="1.75" stroke-miterlimit="10" stroke-linecap="round" stroke-linejoin="round"/>
    <path d="M2.7635 9.07457L1.33837 7.5663C1.1416 7.35806 1.1416 7.02042 1.33837 6.81217L6.68261 1.15619C6.87938 0.947938 7.19841 0.947938 7.39518 1.15619L8.82031 2.66445C9.01708 2.8727 9.01708 3.21033 8.82031 3.41858L3.47607 9.07457C3.2793 9.28281 2.96027 9.28281 2.7635 9.07457Z" stroke="#CA2F4E" stroke-width="1.75" stroke-miterlimit="10"/>
    <path d="M19.0787 3.93712L21.0107 3.25022C21.2774 3.15538 21.5746 3.29858 21.6744 3.57007L24.1579 10.5033C24.2578 10.7748 24.1225 11.0717 23.8557 11.1666L21.9238 11.8535C21.657 11.9483 21.3599 11.8051 21.26 11.5336L18.7765 4.60041C18.6767 4.32892 18.812 4.03196 19.0787 3.93712Z" stroke="#CA2F4E" stroke-width="1.75" stroke-miterlimit="10"/>
    <path d="M13.517 7.63515L18.3032 12.7006L21.1244 11.1463L19.1464 5.83684L13.8526 5.22514C13.6301 5.19942 13.4067 5.23076 13.1993 5.31777C12.4106 5.64862 10.3815 6.49815 9.98721 6.64602C9.98721 6.64602 8.09621 8.0884 10.2018 8.60678C10.4872 8.67705 10.7907 8.63748 11.057 8.51061C11.6587 8.224 13.058 7.63515 13.517 7.63515Z" stroke="#CA2F4E" stroke-width="1.75" stroke-miterlimit="10"/>
    <path d="M6.4858 12.0024L5.17793 13.0251C4.72312 13.3777 4.076 13.2844 3.73254 12.8168L3.73254 12.8168C3.38908 12.3491 3.47935 11.6843 3.93416 11.3317L5.24203 10.309" stroke="#CA2F4E" stroke-width="1.75" stroke-miterlimit="10"/>
    <path d="M7.38294 14.015L5.59819 15.3569C5.14338 15.7094 4.49626 15.6162 4.1528 15.1485L4.1528 15.1485C3.80935 14.6809 3.56048 14.27 4.35442 13.6634L6.00143 12.3867" stroke="#CA2F4E" stroke-width="1.75" stroke-miterlimit="10"/>
    <path d="M8.56161 15.7084L7.25373 16.7312C6.79893 17.0837 6.15181 16.9904 5.80835 16.5228L5.80835 16.5228C5.46489 16.0552 5.55516 15.3903 6.00997 15.0377L7.79472 13.6958" stroke="#CA2F4E" stroke-width="1.75" stroke-miterlimit="10"/>
    <path d="M10.6289 16.7635L9.321 17.7862C8.86619 18.1388 8.21907 18.0455 7.87561 17.5779L7.87561 17.5779C7.53215 17.1103 7.62242 16.4454 8.07723 16.0928L9.3851 15.0701" stroke="#CA2F4E" stroke-width="1.75" stroke-miterlimit="10"/>
</svg>
