<svg width="22" height="20" viewBox="0 0 22 20" fill="none" xmlns="http://www.w3.org/2000/svg">
    <path d="M19.6125 18.55H2.5125C1.99 18.55 1.5625 18.1225 1.5625 17.6V6.2C1.5625 5.6775 1.99 5.25 2.5125 5.25H19.6125C20.135 5.25 20.5625 5.6775 20.5625 6.2V17.6C20.5625 18.1225 20.135 18.55 19.6125 18.55Z" stroke="#52B392" stroke-width="1.75" stroke-linecap="round" stroke-linejoin="round"/>
    <path d="M15.3375 5.24995H6.78748V2.87495C6.78748 2.08645 7.42398 1.44995 8.21248 1.44995H13.9125C14.701 1.44995 15.3375 2.08645 15.3375 2.87495V5.24995Z" stroke="#52B392" stroke-width="1.75" stroke-linecap="round" stroke-linejoin="round"/>
    <path d="M20.5625 10.7505C16.8385 11.6625 13.561 11.9 11.0625 11.9C7.234 11.9 3.9945 11.349 1.5625 10.7505V6.2C1.5625 5.6775 1.99 5.25 2.5125 5.25H19.6125C20.135 5.25 20.5625 5.6775 20.5625 6.2V10.7505Z" stroke="#52B392" stroke-width="1.75" stroke-linecap="round" stroke-linejoin="round"/>
    <path d="M11.5378 8.09998H10.5878V9.04998H11.5378V8.09998Z" stroke="#52B392" stroke-width="1.75" stroke-linecap="round"/>
</svg>
