<svg width="27" height="20" viewBox="0 0 27 20" fill="none" xmlns="http://www.w3.org/2000/svg">
    <path d="M23.2838 17.5858H5.46537C3.31179 17.5858 1.6106 15.7249 1.82488 13.5804L2.65645 5.4429H5.0832L6.52426 8.3272C7.28919 9.85817 9.35438 10.1381 10.4986 8.86573C11.6428 7.5934 13.3424 5.4429 13.3424 5.4429C13.3424 5.4429 16.4685 7.75637 18.4303 9.08576C20.2452 10.3156 22.8713 11.7922 24.4234 12.6414C25.2135 13.0737 26.0924 13.8997 26.0924 14.8008V15.1572C26.0924 16.4985 24.624 17.5858 23.2838 17.5858Z" stroke="#CA2F4E" stroke-width="1.75"/>
    <path d="M9.09235 17.5858V18.8" stroke="#CA2F4E" stroke-width="1.75" stroke-linecap="round"/>
    <path d="M18.8066 17.5858V18.8" stroke="#CA2F4E" stroke-width="1.75" stroke-linecap="round"/>
    <path d="M5.44952 17.5858V18.8" stroke="#CA2F4E" stroke-width="1.75" stroke-linecap="round"/>
    <path d="M15.1638 17.5858V18.8" stroke="#CA2F4E" stroke-width="1.75" stroke-linecap="round"/>
    <path d="M22.4495 17.5858V18.8" stroke="#CA2F4E" stroke-width="1.75" stroke-linecap="round"/>
    <path d="M19.2892 13.564L21.2593 10.8525" stroke="#CA2F4E" stroke-width="1.75"/>
    <path d="M16.8334 11.7798L18.6736 9.25266" stroke="#CA2F4E" stroke-width="1.75"/>
    <path d="M14.3776 9.99539L16.203 7.48297" stroke="#CA2F4E" stroke-width="1.75"/>
    <path d="M2.03192 11.5143C2.03192 11.5143 4.90176 12.6203 6.28192 13.9429C7.51636 15.1259 8.71049 17.5858 8.71049 17.5858" stroke="#CA2F4E" stroke-width="1.75" stroke-linecap="round"/>
    <path d="M13.342 5.44291L11.5206 1.80005C11.5206 1.80005 11.0782 2.16636 10.8618 2.45884C10.2293 3.31368 9.95569 4.22 10.3469 5.13275L11.4665 7.7452C12.4132 6.61826 13.342 5.44291 13.342 5.44291Z" stroke="#CA2F4E" stroke-width="1.75" stroke-linejoin="round"/>
</svg>
