<svg width="21" height="18" viewBox="0 0 21 18" fill="none" xmlns="http://www.w3.org/2000/svg">
    <path d="M2.17621 4.37166H17.4762V1.90243C17.4762 1.32076 16.935 0.891152 16.3701 1.02438L2.17621 4.37166Z" stroke="#F6D278" stroke-width="1.75" stroke-linecap="round" stroke-linejoin="round"/>
    <path d="M18.3754 16.9998H2.17539C1.68039 16.9998 1.27539 16.5939 1.27539 16.0978V5.27337C1.27539 4.77725 1.68039 4.37134 2.17539 4.37134H18.3754C18.8704 4.37134 19.2754 4.77725 19.2754 5.27337V16.0978C19.2754 16.5939 18.8704 16.9998 18.3754 16.9998Z" stroke="#F6D278" stroke-width="1.75" stroke-linecap="round" stroke-linejoin="round"/>
    <path d="M19.2753 12.49H15.6753C14.6853 12.49 13.8753 11.6781 13.8753 10.6859C13.8753 9.69367 14.6853 8.88184 15.6753 8.88184H19.2753V12.49Z" stroke="#F6D278" stroke-width="1.75" stroke-linecap="round" stroke-linejoin="round"/>
</svg>
