<svg width="21" height="21" viewBox="0 0 21 21" fill="none" xmlns="http://www.w3.org/2000/svg">
    <path d="M16.7754 13.5019C17.6054 13.5019 18.2754 14.1717 18.2754 15.0014C18.2754 15.8312 17.6054 16.501 16.7754 16.501H14.2754H16.2754C17.1054 16.501 17.7754 17.1707 17.7754 18.0005C17.7754 18.8302 17.1054 19.5 16.2754 19.5H15.2754H7.27539C3.96539 19.5 1.27539 16.8009 1.27539 13.4819C1.27539 10.7828 3.04539 8.49349 5.49539 7.73373C6.72539 7.34386 7.64539 6.30419 8.04539 5.06458L8.96539 2.23548C9.12539 1.58568 9.78539 1.41574 10.4454 1.5357C11.4954 1.71564 12.3854 3.06521 12.3854 5.50444L12.2754 7.5038H17.7754C18.6054 7.5038 19.2754 8.17359 19.2754 9.0033C19.2754 9.8331 18.6054 10.5029 17.7754 10.5029H15.2754H17.2754C18.1054 10.5029 18.7754 11.1726 18.7754 12.0024C18.7754 12.8321 18.1054 13.5019 17.2754 13.5019H14.7754" stroke="#F6D278" stroke-width="1.75" stroke-miterlimit="10" stroke-linecap="round" stroke-linejoin="round"/>
</svg>
