<svg width="21" height="20" viewBox="0 0 21 20" fill="none" xmlns="http://www.w3.org/2000/svg">
    <path d="M1.27539 1.9V13.6C1.27539 14.095 1.68039 14.5 2.17539 14.5H4.87539V19L10.2754 14.5H18.3754C18.8704 14.5 19.2754 14.095 19.2754 13.6V1.9C19.2754 1.405 18.8704 1 18.3754 1H2.17539C1.68039 1 1.27539 1.405 1.27539 1.9Z" stroke="#F6D278" stroke-width="1.75" stroke-miterlimit="10" stroke-linecap="round" stroke-linejoin="round"/>
    <path d="M10.2754 11.7998H10.2844" stroke="#F6D278" stroke-width="1.75" stroke-miterlimit="10" stroke-linecap="round" stroke-linejoin="round"/>
    <path d="M8.47534 5.5362C8.51134 5.2752 8.61934 4.7892 8.97934 4.3572C9.07834 4.2402 9.24934 4.0332 9.54634 3.8802C9.89734 3.7002 10.2213 3.7002 10.3653 3.7002C10.5363 3.7002 10.9143 3.7182 11.3103 3.9792C11.7963 4.3032 11.9493 4.7712 11.9943 4.9152C12.0213 4.9872 12.1563 5.4642 11.9943 6.0132C11.8953 6.3552 11.7153 6.5712 11.5533 6.7512C10.9233 7.4982 10.3743 7.4352 10.2753 7.9212C10.2663 7.9572 10.2753 8.2272 10.2753 8.7582C10.2753 8.9022 10.2753 9.0192 10.2753 9.1002" stroke="#F6D278" stroke-width="1.75" stroke-miterlimit="10" stroke-linecap="round" stroke-linejoin="round"/>
</svg>
