<svg width="535" height="353" viewBox="0 0 535 353" fill="none" xmlns="http://www.w3.org/2000/svg">
<circle cx="3.04428" cy="34.4378" r="2.78745" fill="#F6D278"/>
<circle cx="16.8348" cy="34.4378" r="2.78745" fill="#F6D278"/>
<circle cx="32.0924" cy="34.4378" r="2.78745" fill="#F6D278"/>
<circle cx="32.0924" cy="48.2284" r="2.78745" fill="#F6D278"/>
<circle cx="16.8348" cy="48.2284" r="2.78745" fill="#F6D278"/>
<circle cx="3.04428" cy="48.2284" r="2.78745" fill="#F6D278"/>
<circle cx="3.04428" cy="62.0189" r="2.78745" fill="#F6D278"/>
<circle cx="16.8348" cy="62.0189" r="2.78745" fill="#F6D278"/>
<circle cx="32.0924" cy="62.0189" r="2.78745" fill="#F6D278"/>
<path opacity="0.4" d="M481.856 351.206C481.856 351.206 541.421 282.967 516.553 202.754C494.231 130.768 393.299 84.1672 339.651 119.831C313.699 137.085 292.744 67.738 206.638 42.3754C142.949 23.6126 48.8051 65.7109 72.7064 194.599C90.8799 292.608 0.696167 243.745 20.4018 352.007L481.856 351.206Z" fill="#F6D379"/>
<path d="M172.507 112.665C172.507 112.665 185.447 98.6636 174.157 89.0465C174.157 89.0465 165.86 83.578 158.906 83.743C158.906 83.743 168.099 100.573 164.87 102.105C161.64 103.614 155.96 82.6116 155.96 82.6116C155.96 82.6116 136.678 80.0188 130.361 82.7766C130.361 82.7766 146.39 96.9193 142.878 97.6029C139.366 98.2865 121.993 84.3323 121.993 84.3323C121.993 84.3323 103.867 86.713 104.433 97.7443C104.975 108.752 111.056 112.382 113.791 112.194C116.525 112.005 132.695 106.513 132.978 108.752C133.237 110.991 123.361 117.945 116.643 118.039C116.643 118.039 128.806 132.512 137.386 128.788C145.965 125.063 146.932 118.699 152.283 116.483C157.633 114.268 162.112 114.456 159.849 116.813C157.586 119.171 147.969 121.198 144.763 126.407C141.558 131.616 138.729 135.105 147.498 134.115C156.266 133.125 170.692 127.279 171.587 119.996C172.507 112.665 172.507 112.665 172.507 112.665Z" fill="#2C8C69"/>
<path d="M113.272 98.3101C113.272 98.3101 162.23 98.2629 172.507 112.641C172.507 112.641 174.628 119.878 181.723 126.666L182.76 129.825C182.76 129.825 174.628 120.561 171.611 119.925C171.611 119.948 177.009 102.812 113.272 98.3101Z" fill="white"/>
<path d="M175.477 119.949C175.477 119.949 185.683 128.104 185.896 142.011L183.986 142.106C183.986 142.106 181.181 127.633 175.336 121.811C169.466 115.965 175.477 119.949 175.477 119.949Z" fill="#599DAD"/>
<path d="M194.546 86.831C194.546 86.831 223.633 80.2782 217.622 57.8619C217.622 57.8619 211.777 43.4599 202.678 37.4963C202.678 37.4963 199.614 67.3375 194.098 66.4418C188.582 65.5226 199.92 33.4185 199.92 33.4185C199.92 33.4185 177.386 12.9822 166.779 10.908C166.779 10.908 174.888 43.342 169.749 41.1027C164.634 38.8635 154.616 5.48657 154.616 5.48657C154.616 5.48657 129.159 -7.5012 120.084 7.18369C111.009 21.8686 115.629 31.9335 119.33 34.1021C123.031 36.2942 148.723 43.5541 147.073 46.6891C145.423 49.8241 126.543 50.0127 117.798 44.1434C117.798 44.1434 120.65 73.5839 135.005 76.3889C149.36 79.2175 156.266 71.8397 165.105 73.7489C173.945 75.6582 179.578 79.8539 174.557 80.891C169.537 81.9282 155.37 76.0353 146.626 79.901C137.881 83.7667 131.139 85.7467 143.326 92.2524C155.512 98.758 179.295 104.014 186.909 95.4109C194.546 86.831 194.546 86.831 194.546 86.831Z" fill="url(#paint0_linear)"/>
<path d="M130.927 15.8342C130.927 15.8342 194.051 59.1818 194.546 86.8309C194.546 86.8309 190.845 98.0508 193.98 113.089L192.495 118.086C192.495 118.086 190.209 98.9465 186.909 95.4344C186.933 95.4344 209.066 78.1095 130.927 15.8342Z" fill="white"/>
<path d="M194.947 115.494C194.947 115.494 200.863 135.058 188.818 153.137L186.273 151.581C186.273 151.581 195.466 130.438 193.108 117.756C190.728 105.028 194.947 115.494 194.947 115.494Z" fill="#6BB7BF"/>
<path d="M358.555 184.911C358.555 184.911 329.468 178.358 335.479 155.942C335.479 155.942 341.324 141.54 350.423 135.576C350.423 135.576 353.487 165.417 359.003 164.522C364.518 163.602 353.181 131.498 353.181 131.498C353.181 131.498 375.715 111.062 386.322 108.988C386.322 108.988 378.213 141.422 383.352 139.183C388.467 136.943 398.485 103.566 398.485 103.566C398.485 103.566 423.942 90.5786 433.017 105.264C442.091 119.948 437.472 129.99 433.771 132.182C430.07 134.374 404.377 141.634 406.027 144.769C407.677 147.904 426.558 148.092 435.303 142.223C435.303 142.223 432.451 171.664 418.096 174.469C403.741 177.297 396.835 169.919 387.995 171.829C379.156 173.738 373.523 177.934 378.543 178.971C383.564 180.008 397.73 174.115 406.475 177.981C415.22 181.847 421.962 183.827 409.775 190.332C397.589 196.838 373.806 202.094 366.192 193.491C358.555 184.911 358.555 184.911 358.555 184.911Z" fill="#52B392"/>
<path d="M422.174 113.914C422.174 113.914 359.05 157.262 358.555 184.911C358.555 184.911 362.255 196.131 359.12 211.169L360.605 216.166C360.605 216.166 362.892 197.027 366.192 193.514C366.192 193.514 344.035 176.213 422.174 113.914Z" fill="white"/>
<path d="M357.683 282.425C357.683 282.425 351.766 301.989 363.811 320.069L366.357 318.513C366.357 318.513 357.164 297.369 359.521 284.688C361.879 271.96 357.683 282.425 357.683 282.425Z" fill="#6BB7BF"/>
<path d="M164.259 54.656H376V351.984H164.259V54.656Z" fill="#C8AA99"/>
<path d="M171.682 62.8823H368.526V346.468H171.682V62.8823Z" fill="#F7F8FA"/>
<path d="M192.142 97.6973H343.658C346.196 97.6973 348.254 99.7551 348.254 102.294C348.254 104.832 346.196 106.89 343.658 106.89H192.142C189.603 106.89 187.545 104.832 187.545 102.294C187.545 99.7551 189.603 97.6973 192.142 97.6973Z" fill="#C8AA99"/>
<path d="M189.655 153.797H346.145C347.31 153.797 348.254 154.741 348.254 155.906C348.254 157.071 347.31 158.016 346.145 158.016H189.655C188.49 158.016 187.546 157.071 187.546 155.906C187.546 154.741 188.49 153.797 189.655 153.797Z" fill="#C8AA99"/>
<path d="M189.655 163.697H346.145C347.31 163.697 348.254 164.641 348.254 165.806C348.254 166.972 347.31 167.916 346.145 167.916H189.655C188.49 167.916 187.546 166.972 187.546 165.806C187.546 164.641 188.49 163.697 189.655 163.697Z" fill="#C8AA99"/>
<path d="M189.655 173.62H346.145C347.31 173.62 348.254 174.565 348.254 175.73C348.254 176.895 347.31 177.839 346.145 177.839H189.655C188.49 177.839 187.546 176.895 187.546 175.73C187.546 174.565 188.49 173.62 189.655 173.62Z" fill="#C8AA99"/>
<path d="M189.655 183.544H346.145C347.31 183.544 348.254 184.488 348.254 185.654C348.254 186.819 347.31 187.763 346.145 187.763H189.655C188.49 187.763 187.546 186.819 187.546 185.654C187.546 184.488 188.49 183.544 189.655 183.544Z" fill="#C8AA99"/>
<path d="M189.655 213.013H312.464C313.629 213.013 314.574 213.957 314.574 215.123C314.574 216.288 313.629 217.232 312.464 217.232H189.655C188.49 217.232 187.546 216.288 187.546 215.123C187.546 213.957 188.49 213.013 189.655 213.013Z" fill="#C8AA99"/>
<path d="M189.655 193.468H346.145C347.31 193.468 348.254 194.412 348.254 195.577C348.254 196.742 347.31 197.687 346.145 197.687H189.655C188.49 197.687 187.546 196.742 187.546 195.577C187.546 194.412 188.49 193.468 189.655 193.468Z" fill="#C8AA99"/>
<path d="M189.655 222.937H312.464C313.629 222.937 314.574 223.881 314.574 225.046C314.574 226.211 313.629 227.156 312.464 227.156H189.655C188.49 227.156 187.546 226.211 187.546 225.046C187.546 223.881 188.49 222.937 189.655 222.937Z" fill="#C8AA99"/>
<path d="M189.655 203.391H346.145C347.31 203.391 348.254 204.335 348.254 205.5C348.254 206.665 347.31 207.61 346.145 207.61H189.655C188.49 207.61 187.546 206.665 187.546 205.5C187.546 204.335 188.49 203.391 189.655 203.391Z" fill="#C8AA99"/>
<path d="M189.655 232.86H281.026C282.191 232.86 283.135 233.804 283.135 234.969C283.135 236.135 282.191 237.079 281.026 237.079H189.655C188.49 237.079 187.546 236.135 187.546 234.969C187.546 233.804 188.49 232.86 189.655 232.86Z" fill="#C8AA99"/>
<path d="M232.654 49.8474H257.616C257.05 48.3624 256.743 46.7596 256.743 45.086C256.743 37.6611 262.754 31.6504 270.179 31.6504C277.604 31.6504 283.615 37.6611 283.615 45.086C283.615 46.7596 283.308 48.3624 282.743 49.8474H307.704C309.708 49.8474 311.334 51.4738 311.334 53.4774V63.5659C311.334 65.5694 309.708 67.1959 307.704 67.1959H232.63C230.626 67.1959 229 65.5694 229 63.5659V53.4774C229.024 51.4738 230.65 49.8474 232.654 49.8474ZM270.203 50.036C272.937 50.036 275.153 47.8203 275.153 45.086C275.153 42.3517 272.937 40.136 270.203 40.136C267.468 40.136 265.253 42.3517 265.253 45.086C265.229 47.8203 267.468 50.036 270.203 50.036Z" fill="#CB304E"/>
<path d="M307.728 67.196H232.653C230.65 67.196 229.023 65.5696 229.023 63.566V53.4775L307.728 67.196Z" fill="#A82242"/>
<path d="M104.951 237.522C104.951 237.522 105.611 243.886 106.319 245.088C107.026 246.29 110.09 250.133 111.387 250.887C112.683 251.641 110.585 245.819 110.868 244.688C111.127 243.556 111.929 246.762 112.518 246.833C113.107 246.903 112.942 244.028 112.966 242.99C112.989 241.953 110.184 239.36 109.194 237.121C108.181 234.882 104.951 237.522 104.951 237.522Z" fill="#FFB27D"/>
<path d="M183.066 178.877L184.528 176.119C184.528 176.119 183.797 171.216 189.949 168.105C189.949 168.105 192.189 167.185 193.461 169.024C194.64 170.721 191.222 170.415 191.411 173.29C191.599 176.19 190.232 177.887 188.299 178.829L186.72 180.668L183.066 178.877Z" fill="#FFB27D"/>
<path d="M124.893 172.277C124.893 172.277 130.173 198.229 159.284 206.714C168.359 209.354 189.007 179.466 189.007 179.466C189.007 179.466 188.276 176.708 183.727 177.344C183.727 177.344 163.644 190.639 161.099 192.1C158.859 193.373 144.104 175.624 137.362 172.748C130.645 169.872 124.893 172.277 124.893 172.277Z" fill="#A82242"/>
<path d="M202.307 167.172L203.133 172.553L176.108 176.704L175.281 171.322L202.307 167.172Z" fill="#C65447"/>
<path d="M208.995 168.906L203.126 172.56L202.301 167.185L208.995 168.906Z" fill="#FFB27D"/>
<path d="M172.412 173.597L172.672 175.294C172.837 176.331 173.803 177.062 174.864 176.897L176.113 176.708L175.288 171.334L173.921 171.546C172.955 171.687 172.271 172.607 172.412 173.597Z" fill="#FFB27D"/>
<path d="M90.1487 335.413C90.1487 335.413 86.5422 338.713 87.2494 341.047C87.9565 343.38 91.2094 344.936 91.6572 347.812C92.1051 350.664 93.8494 352.243 95.4522 352.243C97.0315 352.243 103.019 352.243 103.019 352.243C103.019 352.243 104.174 350.24 101.369 349.627C98.54 349.014 97.4793 345.667 97.6679 342.532C97.8329 339.421 97.4086 335.248 97.4086 335.248L91.4215 333.858L90.1487 335.413Z" fill="#AF7D5B"/>
<path d="M134.439 343.923C134.439 343.923 133.803 351.418 135.382 352.196L155.654 352.149C155.654 352.149 155.654 349.815 152.401 349.297C149.148 348.778 143.42 346.869 142.454 342.626C141.464 338.383 134.439 343.923 134.439 343.923Z" fill="#AF7D5B"/>
<path d="M151.552 238.041C151.552 238.041 150.491 251.17 149.218 266.986C147.521 288.436 145.447 314.789 145.258 319.786C144.904 328.46 143.49 342.32 143.49 342.32C143.49 342.32 140.143 345.62 133.449 344.229C133.449 344.229 127.485 324.429 125.788 303.475C125.765 303.121 125.741 302.791 125.717 302.437C124.138 281.105 121.663 236.202 121.663 236.202L151.552 238.041Z" fill="#8E1C3D"/>
<path opacity="0.2" d="M151.552 238.04C151.552 238.04 150.491 251.17 149.218 266.986L125.788 303.498C125.765 303.144 125.741 302.814 125.717 302.461C124.138 281.129 121.663 236.225 121.663 236.225L151.552 238.04Z" fill="#AF7D5B"/>
<path d="M146.673 239.596C146.673 239.596 127.392 287.186 114.71 309.555C102.029 331.925 98.0691 338.171 98.0691 338.171C98.0691 338.171 90.8092 335.319 90.1492 333.362C90.1492 333.362 95.0048 290.18 103.49 279.667C108.299 273.727 113.933 255.884 114.192 249.637C114.451 243.391 115.913 231.04 115.913 231.04L146.673 239.596Z" fill="#A82242"/>
<path d="M121.31 166.266C121.31 166.266 134.345 172.56 141.864 170.226C141.864 170.226 140.002 167.892 136.773 166.148C137.032 164.64 137.244 163.32 137.362 162.212C137.668 159.642 137.668 158.205 137.668 158.205L132.624 154.245L127.863 150.45C128.24 161.104 121.31 166.266 121.31 166.266Z" fill="#FFB27D"/>
<path d="M114.427 233.444C114.404 234.245 116.101 235.141 116.855 235.495C122.441 237.946 127.651 239.643 133.543 240.232C140.521 240.94 148.747 239.384 151.599 239.431C151.882 239.431 152.141 239.313 152.377 239.125C152.589 238.983 152.73 230.592 152.589 220.008C152.589 219.584 152.589 219.16 152.566 218.736V218.594C152.518 214.469 152.353 210.132 152.165 205.795C151.764 196.272 151.01 187.103 149.737 182.035C148.205 176.048 144.74 172.088 141.581 169.212L138.988 166.926C136.396 167.444 133.638 167.303 130.88 165.959C127.863 164.498 124.634 162.942 124.115 163.343C120.179 166.219 117.515 172.677 116.101 180.951C115.299 185.712 114.875 191.039 114.922 196.626C114.922 198.676 114.969 200.774 115.087 202.872C115.771 214.139 115.087 223.945 114.686 229.625C114.545 231.252 114.451 232.548 114.427 233.444Z" fill="#CB304E"/>
<path d="M114.663 232.926C160.344 232.831 123.078 183.355 123.078 183.355L115.677 180.951C115.087 186.042 114.804 191.723 114.828 197.687C114.828 199.879 114.875 202.118 114.946 204.357C115.464 216.402 114.946 226.891 114.663 232.926Z" fill="#A82242"/>
<path d="M127.792 154.527C127.792 154.527 131.092 160.538 137.362 162.212C137.669 159.642 137.669 158.205 137.669 158.205L132.624 154.245L127.792 154.527Z" fill="#ED985F"/>
<path d="M139.979 158.016C139.979 158.016 127.533 160.043 126.354 152.406C125.176 144.746 122.795 139.866 130.691 138.24C138.588 136.613 140.591 139.301 141.605 141.776C142.619 144.25 143.184 157.309 139.979 158.016Z" fill="#FFB27D"/>
<path d="M121.829 137.321C121.711 137.203 121.452 137.085 120.886 137.061C120.886 137.061 121.357 136.778 121.97 136.755C122.088 135.953 122.512 134.516 123.903 134.186C123.903 134.186 123.149 134.586 123.054 135.435C124.657 133.785 128.099 132.583 137.645 133.337C150.209 134.327 146.06 142.365 144.434 143.331C142.807 144.298 138.706 141.658 135.689 141.893C132.648 142.129 132.082 146.513 131.045 147.126C130.008 147.715 130.432 146.655 129.018 146.042C127.627 145.406 127.486 147.716 127.887 149.224C128.287 150.733 126.378 152.713 126.378 152.713C126.378 152.713 126.378 152.713 124.445 150.638C122.512 148.564 120.697 139.748 121.569 137.863C121.687 137.674 121.758 137.509 121.829 137.321Z" fill="#AF7D5B"/>
<path d="M124.091 163.296C124.091 163.296 116.219 167.02 112.447 172.748C106.602 181.634 99.8131 214.045 99.6716 217.038C99.5538 220.032 104.622 241.222 104.622 241.222C104.622 241.222 109.784 240.892 111.104 238.276C111.104 238.276 110.067 216.52 110.727 215.106C111.387 213.715 132.2 185.901 129.866 179.984C127.533 174.068 124.091 163.296 124.091 163.296Z" fill="#CB304E"/>
<path d="M184.552 175.978C184.552 175.978 184.127 174.28 185.306 173.526C186.484 172.772 187.569 170.698 188.064 170.98C189.077 171.57 187.498 173.361 187.804 175.624C187.875 176.402 186.037 178.476 184.552 175.978Z" fill="#FFB27D"/>
<path d="M534.184 352.96H5.99963C5.74036 352.96 5.5282 352.268 5.5282 351.46C5.5282 350.653 5.74036 349.96 5.99963 349.96H534.184C534.444 349.96 534.656 350.653 534.656 351.46C534.656 352.268 534.444 352.96 534.184 352.96Z" fill="#C8AA99"/>
<circle cx="499.039" cy="107.375" r="2.78745" fill="#52B392"/>
<circle cx="512.83" cy="107.375" r="2.78745" fill="#52B392"/>
<circle cx="528.088" cy="107.375" r="2.78745" fill="#52B392"/>
<circle cx="528.088" cy="121.166" r="2.78745" fill="#52B392"/>
<circle cx="512.83" cy="121.166" r="2.78745" fill="#52B392"/>
<circle cx="499.039" cy="121.166" r="2.78745" fill="#52B392"/>
<circle cx="499.039" cy="134.956" r="2.78745" fill="#52B392"/>
<circle cx="512.83" cy="134.956" r="2.78745" fill="#52B392"/>
<circle cx="528.088" cy="134.956" r="2.78745" fill="#52B392"/>
<defs>
<linearGradient id="paint0_linear" x1="116.064" y1="92.9272" x2="228.922" y2="84.1059" gradientUnits="userSpaceOnUse">
<stop stop-color="#219D73"/>
<stop offset="1" stop-color="#52B392"/>
</linearGradient>
</defs>
</svg>
