<svg width="33" height="32" viewBox="0 0 33 32" fill="none" xmlns="http://www.w3.org/2000/svg">
    <path d="M27.3333 20.9181C28.7167 20.9181 29.8333 21.9934 29.8333 23.3254C29.8333 24.6576 28.7167 25.7329 27.3333 25.7329H23.1667H26.5C27.8833 25.7329 29 26.8081 29 28.1403C29 29.4723 27.8833 30.5476 26.5 30.5476H24.8333H11.5C5.98333 30.5476 1.5 26.2144 1.5 20.886C1.5 16.5528 4.45 12.8774 8.53333 11.6577C10.5833 11.0318 12.1167 9.36268 12.7833 7.37258L14.3167 2.83066C14.5833 1.78745 15.6833 1.51463 16.7833 1.70721C18.5333 1.99609 20.0167 4.16273 20.0167 8.07874L19.8333 11.2886H29C30.3833 11.2886 31.5 12.3639 31.5 13.6959C31.5 15.0281 30.3833 16.1034 29 16.1034H24.8333H28.1667C29.55 16.1034 30.6667 17.1786 30.6667 18.5107C30.6667 19.8428 29.55 20.9181 28.1667 20.9181H24" stroke="white" stroke-width="1.75" stroke-miterlimit="10" stroke-linecap="round" stroke-linejoin="round"/>
</svg>
