<svg width="46" height="47" viewBox="0 0 46 47" fill="none" xmlns="http://www.w3.org/2000/svg">
    <circle cx="23" cy="23.3418" r="23" fill="#CA2F4E"/>
    <path d="M30.2222 26.6772C31.1444 26.6772 31.8889 27.4215 31.8889 28.3434C31.8889 29.2654 31.1444 30.0096 30.2222 30.0096H27.4444H29.6667C30.5889 30.0096 31.3333 30.7537 31.3333 31.6757C31.3333 32.5976 30.5889 33.3418 29.6667 33.3418H28.5556H19.6667C15.9889 33.3418 13 30.3428 13 26.655C13 23.656 14.9667 21.1123 17.6889 20.2682C19.0556 19.835 20.0778 18.6798 20.5222 17.3024L21.5444 14.159C21.7222 13.437 22.4556 13.2482 23.1889 13.3815C24.3556 13.5814 25.3444 15.0809 25.3444 17.7912L25.2222 20.0127H31.3333C32.2556 20.0127 33 20.7569 33 21.6788C33 22.6008 32.2556 23.345 31.3333 23.345H28.5556H30.7778C31.7 23.345 32.4444 24.0891 32.4444 25.0111C32.4444 25.933 31.7 26.6772 30.7778 26.6772H28" stroke="white" stroke-width="1.75" stroke-miterlimit="10" stroke-linecap="round" stroke-linejoin="round"/>
</svg>
