<svg width="47" height="46" viewBox="0 0 47 46" fill="none" xmlns="http://www.w3.org/2000/svg">
    <circle cx="23.7852" cy="23" r="23" fill="#52B392"/>
    <path d="M23.8822 13.0004C23.8822 13.0004 22.4172 16.2776 22.5051 18.4838C22.5781 20.3155 23.7852 23 23.7852 23C23.7852 23 22.2951 25.8325 20.7665 27.108C19.2048 28.411 16.073 29.3657 16.073 29.3657C13.6983 26.4847 13.0412 22.3842 14.7242 18.7748C16.434 15.1082 20.0845 12.9659 23.8822 13.0004Z" stroke="white" stroke-width="1.75" stroke-linecap="round" stroke-linejoin="round"/>
    <path d="M23.7839 23C23.7839 23 22.5769 20.3155 22.5038 18.4838C22.4158 16.2776 23.881 13.0004 23.881 13.0004C25.2665 13.013 26.6715 13.3153 28.0091 13.939C33.0133 16.2725 35.1784 22.2209 32.8449 27.2251C32.8449 27.2251 31.065 24.1889 29.1594 23.3004C27.2539 22.4118 23.7839 23 23.7839 23Z" stroke="white" stroke-width="1.75" stroke-linecap="round" stroke-linejoin="round"/>
    <path d="M16.0742 29.3657C16.0742 29.3657 19.206 28.411 20.7677 27.1079C22.2962 25.8324 23.7864 23 23.7864 23C23.7864 23 27.2564 22.4118 29.1619 23.3003C31.0675 24.1889 32.8474 27.2251 32.8474 27.2251C30.5138 32.2293 24.5654 34.3944 19.5612 32.0609C18.1663 31.4104 16.992 30.4792 16.0742 29.3657Z" stroke="white" stroke-width="1.75" stroke-linecap="round" stroke-linejoin="round"/>
    <path d="M22.5049 18.4838C22.417 16.2777 23.8821 13.0004 23.8821 13.0004C21.9053 12.9824 19.9685 13.5542 18.3245 14.6237L18.3324 14.6266C17.4668 16.9852 17.0603 18.8822 17.2617 21.6126C17.4647 24.366 19.8908 27.6986 19.8908 27.6986L19.8969 27.7153C20.2149 27.524 20.5115 27.3206 20.7664 27.108C22.2949 25.8325 23.785 23 23.785 23C23.785 23 22.578 20.3155 22.5049 18.4838Z" stroke="white" stroke-width="1.75" stroke-linecap="round" stroke-linejoin="round"/>
    <path d="M22.6339 16.9906C22.6339 16.9906 26.4801 16.504 29.7822 18.0009C31.37 18.7207 32.6164 19.7158 33.4675 20.5333L33.4713 20.5274C34.0241 22.6881 33.8609 25.0461 32.8449 27.2251C32.8449 27.2251 31.065 24.1889 29.1594 23.3004C27.2539 22.4118 23.7839 23 23.7839 23C23.7839 23 22.5769 20.3155 22.5038 18.4838C22.4853 18.0188 22.5357 17.5063 22.6269 16.987L22.6339 16.9906Z" stroke="white" stroke-width="1.75" stroke-linecap="round" stroke-linejoin="round"/>
    <path d="M20.7677 27.1079C19.206 28.411 16.0742 29.3657 16.0742 29.3657C16.992 30.4792 18.1663 31.4104 19.5612 32.0609C19.9326 32.2341 20.3093 32.3825 20.6892 32.5069C20.7981 32.4721 20.9069 32.4373 21.0157 32.4024C21.6363 32.2031 22.2545 31.9986 22.8589 31.7599C24.068 31.2823 25.2238 30.6669 26.2391 29.6789C27.2337 28.7113 28.2023 27.2261 28.9214 25.9861C29.2812 25.3656 29.579 24.8052 29.787 24.4001C29.8909 24.1974 29.9724 24.0337 30.028 23.9204L30.0545 23.8662C29.7645 23.6372 29.4648 23.4416 29.1619 23.3003C27.2564 22.4118 23.7864 23 23.7864 23C23.7864 23 22.2962 25.8324 20.7677 27.1079Z" stroke="white" stroke-width="1.75" stroke-linecap="round" stroke-linejoin="round"/>
</svg>
