<svg width="47" height="47" viewBox="0 0 47 47" fill="none" xmlns="http://www.w3.org/2000/svg">
    <circle cx="23.8999" cy="23.1018" r="23" fill="#F6D278"/>
    <path d="M23.997 13.1022C23.997 13.1022 22.5319 16.3795 22.6198 18.5856C22.6929 20.4173 23.8999 23.1018 23.8999 23.1018C23.8999 23.1018 22.4099 25.9343 20.8813 27.2098C19.3196 28.5129 16.1878 29.4675 16.1878 29.4675C13.8131 26.5865 13.1559 22.486 14.839 18.8766C16.5488 15.21 20.1992 13.0677 23.997 13.1022Z" stroke="white" stroke-width="1.75" stroke-linecap="round" stroke-linejoin="round"/>
    <path d="M23.9001 23.1018C23.9001 23.1018 22.6931 20.4173 22.62 18.5856C22.532 16.3794 23.9972 13.1022 23.9972 13.1022C25.3827 13.1148 26.7877 13.4171 28.1253 14.0408C33.1295 16.3743 35.2946 22.3227 32.9611 27.3269C32.9611 27.3269 31.1812 24.2907 29.2757 23.4022C27.3701 22.5136 23.9001 23.1018 23.9001 23.1018Z" stroke="white" stroke-width="1.75" stroke-linecap="round" stroke-linejoin="round"/>
    <path d="M16.188 29.4675C16.188 29.4675 19.3198 28.5128 20.8815 27.2098C22.41 25.9343 23.9002 23.1018 23.9002 23.1018C23.9002 23.1018 27.3701 22.5136 29.2757 23.4022C31.1812 24.2907 32.9611 27.3269 32.9611 27.3269C30.6276 32.3312 24.6792 34.4962 19.675 32.1627C18.2801 31.5122 17.1058 30.581 16.188 29.4675Z" stroke="white" stroke-width="1.75" stroke-linecap="round" stroke-linejoin="round"/>
    <path d="M22.6199 18.5856C22.532 16.3795 23.9971 13.1022 23.9971 13.1022C22.0203 13.0842 20.0835 13.656 18.4395 14.7255L18.4474 14.7284C17.5818 17.087 17.1753 18.984 17.3766 21.7145C17.5797 24.4678 20.0058 27.8004 20.0058 27.8004L20.0119 27.8171C20.3299 27.6258 20.6265 27.4224 20.8813 27.2098C22.4099 25.9343 23.9 23.1018 23.9 23.1018C23.9 23.1018 22.693 20.4173 22.6199 18.5856Z" stroke="white" stroke-width="1.75" stroke-linecap="round" stroke-linejoin="round"/>
    <path d="M22.7501 17.0925C22.7501 17.0925 26.5963 16.6058 29.8984 18.1027C31.4862 18.8225 32.7326 19.8176 33.5837 20.6351L33.5875 20.6293C34.1403 22.7899 33.9771 25.1479 32.9611 27.3269C32.9611 27.3269 31.1812 24.2908 29.2756 23.4022C27.3701 22.5136 23.9001 23.1018 23.9001 23.1018C23.9001 23.1018 22.6931 20.4173 22.62 18.5856C22.6015 18.1206 22.6519 17.6082 22.7431 17.0888L22.7501 17.0925Z" stroke="white" stroke-width="1.75" stroke-linecap="round" stroke-linejoin="round"/>
    <path d="M20.8815 27.2098C19.3198 28.5128 16.188 29.4675 16.188 29.4675C17.1058 30.581 18.2801 31.5122 19.675 32.1627C20.0464 32.3359 20.423 32.4843 20.803 32.6087C20.9118 32.5739 21.0207 32.5391 21.1295 32.5042C21.7501 32.305 22.3683 32.1004 22.9727 31.8617C24.1818 31.3841 25.3376 30.7687 26.3529 29.7807C27.3474 28.8131 28.3161 27.3279 29.0351 26.0879C29.395 25.4674 29.6928 24.907 29.9007 24.5019C30.0047 24.2992 30.0862 24.1355 30.1418 24.0222L30.1683 23.968C29.8782 23.739 29.5786 23.5434 29.2757 23.4022C27.3701 22.5136 23.9002 23.1018 23.9002 23.1018C23.9002 23.1018 22.41 25.9343 20.8815 27.2098Z" stroke="white" stroke-width="1.75" stroke-linecap="round" stroke-linejoin="round"/>
</svg>
