<svg width="47" height="47" viewBox="0 0 47 47" fill="none" xmlns="http://www.w3.org/2000/svg">
    <circle cx="23.8999" cy="23.1018" r="23" fill="#CA2F4E"/>
    <path d="M31.8999 24.1018C31.0699 23.4718 30.0299 23.1018 28.8999 23.1018C26.1399 23.1018 23.8999 25.3418 23.8999 28.1018C23.8999 29.2318 24.2699 30.2718 24.8999 31.1018H14.8999C14.3499 31.1018 13.8999 30.6518 13.8999 30.1018V14.1018C13.8999 13.5518 14.3499 13.1018 14.8999 13.1018H27.4899C27.7499 13.1018 28.0099 13.2118 28.1899 13.3918L31.6099 16.8118C31.7899 16.9918 31.8999 17.2518 31.8999 17.5118V24.1018Z" stroke="white" stroke-width="1.75" stroke-miterlimit="10" stroke-linecap="round" stroke-linejoin="round"/>
    <path d="M23.9999 27.1018H17.8999" stroke="white" stroke-width="1.75" stroke-miterlimit="10" stroke-linecap="round" stroke-linejoin="round"/>
    <path d="M17.8999 22.1018H27.8999" stroke="white" stroke-width="1.75" stroke-miterlimit="10" stroke-linecap="round" stroke-linejoin="round"/>
    <path d="M17.8999 17.1018H22.8999" stroke="white" stroke-width="1.75" stroke-miterlimit="10" stroke-linecap="round" stroke-linejoin="round"/>
    <path d="M28.8999 33.1018C31.6613 33.1018 33.8999 30.8632 33.8999 28.1018C33.8999 25.3404 31.6613 23.1018 28.8999 23.1018C26.1385 23.1018 23.8999 25.3404 23.8999 28.1018C23.8999 30.8632 26.1385 33.1018 28.8999 33.1018Z" stroke="white" stroke-width="1.75" stroke-miterlimit="10" stroke-linecap="round" stroke-linejoin="round"/>
    <path d="M26.5 27.4518L28.3 29.2518L31.3 26.2518" stroke="white" stroke-width="1.75" stroke-miterlimit="10"/>
    <path d="M26.8999 13.1018V18.1018H31.8999V17.5118C31.8999 17.2518 31.7899 16.9918 31.6099 16.8118L28.1899 13.3918C28.0099 13.2118 27.7499 13.1018 27.4899 13.1018H26.8999Z" stroke="white" stroke-width="1.75" stroke-miterlimit="10" stroke-linecap="round" stroke-linejoin="round"/>
</svg>
