<svg width="46" height="46" viewBox="0 0 46 46" fill="none"
     xmlns="http://www.w3.org/2000/svg">
    <circle cx="23" cy="23" r="23" fill="#52B392"/>
    <path
        d="M23.0971 13.0004C23.0971 13.0004 21.632 16.2776 21.7199 18.4838C21.793 20.3155 23 23 23 23C23 23 21.5099 25.8325 19.9814 27.108C18.4197 28.411 15.2879 29.3657 15.2879 29.3657C12.9132 26.4847 12.256 22.3842 13.9391 18.7748C15.6489 15.1082 19.2993 12.9659 23.0971 13.0004Z"
        stroke="white" stroke-width="1.75" stroke-linecap="round"
        stroke-linejoin="round"/>
    <path
        d="M23.0007 23C23.0007 23 21.7937 20.3155 21.7206 18.4838C21.6326 16.2776 23.0978 13.0004 23.0978 13.0004C24.4833 13.013 25.8883 13.3153 27.2259 13.939C32.2301 16.2725 34.3952 22.2209 32.0617 27.2251C32.0617 27.2251 30.2818 24.1889 28.3762 23.3004C26.4707 22.4118 23.0007 23 23.0007 23Z"
        stroke="white" stroke-width="1.75" stroke-linecap="round"
        stroke-linejoin="round"/>
    <path
        d="M15.2891 29.3657C15.2891 29.3657 18.4209 28.411 19.9825 27.1079C21.5111 25.8324 23.0012 23 23.0012 23C23.0012 23 26.4712 22.4118 28.3768 23.3003C30.2823 24.1889 32.0622 27.2251 32.0622 27.2251C29.7286 32.2293 23.7802 34.3944 18.776 32.0609C17.3811 31.4104 16.2068 30.4792 15.2891 29.3657Z"
        stroke="white" stroke-width="1.75" stroke-linecap="round"
        stroke-linejoin="round"/>
    <path
        d="M21.7197 18.4838C21.6319 16.2777 23.0969 13.0004 23.0969 13.0004C21.1202 12.9824 19.1833 13.5542 17.5393 14.6237L17.5473 14.6266C16.6816 16.9852 16.2752 18.8822 16.4765 21.6126C16.6795 24.366 19.1056 27.6986 19.1056 27.6986L19.1118 27.7153C19.4298 27.524 19.7264 27.3206 19.9812 27.108C21.5098 25.8325 22.9998 23 22.9998 23C22.9998 23 21.7928 20.3155 21.7197 18.4838Z"
        stroke="white" stroke-width="1.75" stroke-linecap="round"
        stroke-linejoin="round"/>
    <path
        d="M21.8507 16.9906C21.8507 16.9906 25.6969 16.5039 28.999 18.0009C30.5868 18.7207 31.8332 19.7158 32.6843 20.5332L32.6881 20.5274C33.2409 22.688 33.0777 25.0461 32.0617 27.2251C32.0617 27.2251 30.2818 24.1889 28.3762 23.3003C26.4707 22.4117 23.0007 23 23.0007 23C23.0007 23 21.7937 20.3154 21.7206 18.4837C21.7021 18.0188 21.7525 17.5063 21.8437 16.9869L21.8507 16.9906Z"
        stroke="white" stroke-width="1.75" stroke-linecap="round"
        stroke-linejoin="round"/>
    <path
        d="M19.9825 27.1079C18.4209 28.411 15.2891 29.3657 15.2891 29.3657C16.2068 30.4792 17.3811 31.4104 18.776 32.0609C19.1475 32.2341 19.5241 32.3825 19.9041 32.5069C20.0129 32.4721 20.1218 32.4373 20.2305 32.4024C20.8511 32.2031 21.4694 31.9986 22.0737 31.7599C23.2829 31.2823 24.4387 30.6669 25.454 29.6789C26.4485 28.7113 27.4172 27.2261 28.1362 25.9861C28.496 25.3656 28.7939 24.8052 29.0018 24.4001C29.1058 24.1974 29.1873 24.0337 29.2429 23.9204L29.2694 23.8662C28.9793 23.6372 28.6797 23.4416 28.3768 23.3003C26.4712 22.4118 23.0012 23 23.0012 23C23.0012 23 21.5111 25.8324 19.9825 27.1079Z"
        stroke="white" stroke-width="1.75" stroke-linecap="round"
        stroke-linejoin="round"/>
</svg>
