<svg width="31" height="30" viewBox="0 0 31 30" fill="none" xmlns="http://www.w3.org/2000/svg">
    <path d="M15.6359 1.66706C15.6359 1.66706 13.5848 6.08662 13.7079 9.06174C13.8102 11.5319 15.5 15.1522 15.5 15.1522C15.5 15.1522 13.4139 18.9719 11.2739 20.692C9.08756 22.4493 4.70303 23.7367 4.70303 23.7367C1.37843 19.8515 0.458449 14.3216 2.81473 9.45424C5.20841 4.50958 10.319 1.62045 15.6359 1.66706Z" stroke="white" stroke-width="1.75" stroke-linecap="round" stroke-linejoin="round"/>
    <path d="M15.5006 15.1521C15.5006 15.1521 13.8108 11.5319 13.7085 9.06168C13.5853 6.08655 15.6365 1.66699 15.6365 1.66699C17.5762 1.68401 19.5433 2.09165 21.4159 2.93279C28.4218 6.07966 31.4529 14.1014 28.186 20.8499C28.186 20.8499 25.6941 16.7555 23.0263 15.5571C20.3586 14.3588 15.5006 15.1521 15.5006 15.1521Z" stroke="white" stroke-width="1.75" stroke-linecap="round" stroke-linejoin="round"/>
    <path d="M4.70312 23.7366C4.70312 23.7366 9.08764 22.4492 11.274 20.6919C13.4139 18.9718 15.5002 15.1521 15.5002 15.1521C15.5002 15.1521 20.3581 14.3588 23.0259 15.5571C25.6937 16.7555 28.1855 20.8499 28.1855 20.8499C24.9185 27.5984 16.5908 30.5182 9.58488 27.3712C7.63202 26.4941 5.98799 25.2382 4.70312 23.7366Z" stroke="white" stroke-width="1.75" stroke-linecap="round" stroke-linejoin="round"/>
    <path d="M13.7084 9.06173C13.5854 6.08661 15.6365 1.66706 15.6365 1.66706C12.869 1.64279 10.1575 2.41388 7.85584 3.85619L7.86698 3.86003C6.65507 7.04078 6.08599 9.59902 6.36789 13.2812C6.65212 16.9942 10.0487 21.4885 10.0487 21.4885L10.0573 21.511C10.5025 21.2529 10.9177 20.9787 11.2745 20.6919C13.4145 18.9718 15.5006 15.1521 15.5006 15.1521C15.5006 15.1521 13.8107 11.5319 13.7084 9.06173Z" stroke="white" stroke-width="1.75" stroke-linecap="round" stroke-linejoin="round"/>
    <path d="M13.8905 7.04817C13.8905 7.04817 19.2752 6.3919 23.8982 8.4106C26.1211 9.38128 27.8661 10.7232 29.0577 11.8256L29.063 11.8178C29.8368 14.7315 29.6084 17.9115 28.1859 20.85C28.1859 20.85 25.6941 16.7555 23.0263 15.5572C20.3586 14.3589 15.5006 15.1522 15.5006 15.1522C15.5006 15.1522 13.8108 11.5319 13.7084 9.06172C13.6825 8.43474 13.7531 7.74362 13.8807 7.04322L13.8905 7.04817Z" stroke="white" stroke-width="1.75" stroke-linecap="round" stroke-linejoin="round"/>
    <path d="M11.274 20.6919C9.08764 22.4493 4.70312 23.7367 4.70312 23.7367C5.988 25.2382 7.63202 26.4941 9.58488 27.3713C10.1049 27.6049 10.6322 27.805 11.1641 27.9727C11.3165 27.9258 11.4689 27.8789 11.6212 27.8319C12.49 27.5632 13.3556 27.2873 14.2017 26.9653C15.8944 26.3213 17.5126 25.4914 18.934 24.1591C20.3264 22.8541 21.6825 20.8513 22.6892 19.1791C23.1929 18.3422 23.6099 17.5865 23.901 17.0402C24.0466 16.7669 24.1606 16.5461 24.2385 16.3933L24.2755 16.3203C23.8695 16.0114 23.45 15.7477 23.0259 15.5572C20.3581 14.3588 15.5002 15.1521 15.5002 15.1521C15.5002 15.1521 13.414 18.9719 11.274 20.6919Z" stroke="white" stroke-width="1.75" stroke-linecap="round" stroke-linejoin="round"/>
</svg>
