<svg width="41" height="41" viewBox="0 0 41 41" fill="none" xmlns="http://www.w3.org/2000/svg">
    <path d="M20.8711 38.6072C31.0883 38.6072 39.3711 30.3243 39.3711 20.1072C39.3711 9.8899 31.0883 1.60718 20.8711 1.60718C10.6538 1.60718 2.37109 9.8899 2.37109 20.1072C2.37109 30.3243 10.6538 38.6072 20.8711 38.6072Z" stroke="#CA2F4E" stroke-width="3" stroke-miterlimit="10" stroke-linecap="round" stroke-linejoin="round"/>
    <path d="M20.8727 38.6072C24.9595 38.6072 28.2727 30.3243 28.2727 20.1072C28.2727 9.8899 24.9595 1.60718 20.8727 1.60718C16.7857 1.60718 13.4727 9.8899 13.4727 20.1072C13.4727 30.3243 16.7857 38.6072 20.8727 38.6072Z" stroke="#CA2F4E" stroke-width="3" stroke-miterlimit="10" stroke-linecap="round" stroke-linejoin="round"/>
    <path d="M3.22209 25.6574C2.66709 23.8999 2.37109 22.0499 2.37109 20.1074C2.37109 18.1649 2.66709 16.3149 3.22209 14.5574H38.5201C39.0751 16.3149 39.3711 18.1649 39.3711 20.1074C39.3711 22.0499 39.0751 23.8999 38.5201 25.6574H3.22209Z" stroke="#CA2F4E" stroke-width="3" stroke-miterlimit="10" stroke-linecap="round" stroke-linejoin="round"/>
</svg>
